<svg width="294" height="546" viewBox="0 0 294 546" fill="none" xmlns="http://www.w3.org/2000/svg">
<path d="M229.377 521.515C183.649 559.316 89.1449 546.665 63.9947 521.515V474.263C88.3828 490.267 155.602 512.674 229.377 474.263V521.515ZM140.927 3.30273L141.501 4.12891C193.999 79.8334 254.475 164.582 280.337 242.839C293.083 281.405 297.517 318.657 288.272 352.621L287.821 354.236C277.965 388.708 253.943 419.387 210.817 444.416L209.086 445.42L208.084 443.69L208.039 443.613L207.966 443.56L206.362 442.365L207.556 440.761C225.339 416.881 268.709 370.51 262.439 298.934C259.412 293.299 255.791 289.713 251.99 287.536V287.535C248.085 285.3 243.836 284.464 239.557 284.572C231.091 284.786 222.7 288.701 217.445 292.389C213.922 297.286 208.614 306.327 202.302 317.396C195.888 328.645 188.483 341.9 181.044 354.632C173.607 367.361 166.082 379.661 159.391 389.035C156.049 393.717 152.871 397.734 149.978 400.725C147.188 403.609 144.312 405.921 141.55 406.579H141.549C136.787 407.713 130.948 406.428 125.242 404.284C119.434 402.102 113.31 398.849 107.77 395.525C102.218 392.194 97.1814 388.748 93.5377 386.139C91.7143 384.833 90.2337 383.733 89.2086 382.958C88.6971 382.572 88.2965 382.265 88.023 382.054C87.9177 381.972 87.8311 381.905 87.7642 381.853L87.7603 381.851L87.6285 381.747L87.6216 381.741L87.6138 381.734L87.6011 381.725L87.4097 381.574L86.6451 380.974V379.759L86.6519 378.589C86.8021 366.489 89.2321 354.176 90.9761 344.997C91.7473 340.938 92.3645 337.583 92.6402 335.061L81.9996 349.25V349.251L81.6636 349.698L80.3199 351.486L78.692 349.953L78.2857 349.57V349.569L68.7388 340.584C62.3757 386.879 99.395 425.324 148.23 448.335C152.089 448.15 156.763 446.508 162.383 442.943L163.496 442.221C169.106 438.492 175.482 433.001 182.695 425.539C198.084 409.62 217.04 384.995 240.253 350.174L241.363 348.51L245.523 351.283L244.414 352.947C221.139 387.86 201.987 412.773 186.289 429.013C178.439 437.132 171.391 443.15 165.061 447.165C158.75 451.168 152.98 453.292 147.735 453.354H147.703C146.957 453.353 146.227 453.293 145.519 453.175C128.622 455.994 105.481 450.955 82.8199 439.093C59.8852 427.087 37.1212 407.936 21.4117 382.226C5.68121 356.48 -2.94017 324.209 2.3902 286.121C7.71065 248.105 26.9045 204.454 66.5035 155.792L105.197 89.7871L122.625 48.8701L137.07 4.77539L137.383 3.81934L138.635 0L140.927 3.30273ZM127.341 50.5361L127.338 50.5459L127.332 50.5664L127.299 50.6621L127.258 50.7539L127.25 50.7734L109.737 91.8926L109.732 91.9033L109.719 91.9326L109.665 92.0586L109.594 92.1758L109.578 92.2031L70.7252 158.482L70.7232 158.484L70.7037 158.518L70.6207 158.659L70.5162 158.784L70.4918 158.813C31.2289 207.025 12.5083 249.896 7.34137 286.814C2.17864 323.705 10.5237 354.816 25.6783 379.618C40.8539 404.455 62.8946 423.02 85.1392 434.664C104.267 444.676 123.314 449.453 138.099 448.894C91.387 424.601 55.4978 384.9 64.3629 336.277L64.5767 335.146C64.5776 335.132 64.5799 335.094 64.5816 335.026C64.5846 334.906 64.5842 334.735 64.5767 334.503C64.5619 334.041 64.5256 333.444 64.4752 332.695C64.3759 331.222 64.2287 329.252 64.1353 327.002C63.9488 322.505 63.9689 316.744 65.024 311.002C66.0765 305.274 68.1944 299.365 72.356 294.761C76.581 290.087 82.7142 286.978 91.313 286.568C99.5358 286.177 105.906 287.091 110.865 289.222C115.888 291.38 119.309 294.723 121.701 298.868C124.052 302.944 125.378 307.746 126.36 312.812C127.326 317.8 128.033 323.513 128.956 329.048C129.784 334.018 129.275 338.209 127.74 341.677C126.206 345.141 123.726 347.704 120.906 349.554C118.078 351.409 114.87 352.573 111.783 353.254L127.623 362.106L130.879 341.267V341.263L130.917 341.028L131.065 340.094L131.881 339.615L132.086 339.495L132.089 339.493C138.935 335.5 143.6 333.378 146.599 332.812C147.911 332.565 149.621 332.473 150.964 333.443L151.228 333.651V333.652C151.272 333.69 151.315 333.729 151.356 333.768L151.736 333.504C160.518 327.394 173.43 317.751 180.459 306.068C183.941 300.28 185.884 294.141 185.293 287.772C184.782 282.283 182.364 276.371 176.992 270.146C175.018 274.797 171.95 279.652 168.488 283.652C166.241 286.249 163.763 288.561 161.226 290.244C158.877 291.802 156.293 292.94 153.685 293.076L153.164 293.09C151.091 293.09 148.671 292.253 146.336 291.165C143.921 290.04 141.282 288.493 138.673 286.769C134.03 283.7 129.318 279.954 125.915 276.744L115.986 280.717L115.3 280.991L112.557 282.09V278.343C112.557 278.301 112.557 278.245 112.556 278.171C112.555 278.016 112.552 277.786 112.547 277.494C112.537 276.908 112.517 276.06 112.476 275.031C112.394 272.97 112.231 270.201 111.907 267.345C111.58 264.47 111.101 261.596 110.412 259.288C110.11 258.278 109.785 257.433 109.447 256.77L109.301 256.496C108.95 255.867 108.655 255.557 108.474 255.419L108.404 255.37C99.9986 250.153 93.3182 245.684 88.0132 241.775C87.2737 241.507 86.6735 241.056 86.2027 240.587L85.9722 240.346C85.8877 240.252 85.8069 240.157 85.7291 240.062C75.9555 232.594 71.1979 227.062 69.0504 221.889H69.0494C66.7878 216.44 67.5923 211.503 67.5923 206.756V206.332L67.7047 206.011L67.733 205.93L67.7339 205.926C68.1811 204.655 68.6634 203.356 69.1802 202.034C71.7628 195.431 75.21 188.25 79.438 181.096C82.3978 176.087 85.7458 171.083 89.4556 166.293C101.904 150.221 118.656 136.281 138.712 133.132C158.939 129.957 181.783 137.86 206.054 163.896L206.068 163.91L206.115 163.96L206.158 164.014L206.17 164.029L206.178 164.038L206.186 164.048C246.939 215.444 263.935 260.007 267.378 297.985C273.192 362.113 240.266 406.79 219.963 432.873C254.842 409.832 274.486 382.69 283.014 352.862L283.448 351.31C292.341 318.64 288.163 282.458 275.588 244.408C250.47 168.402 192.225 85.9747 140.257 11.1055L127.341 50.5361ZM85.5767 223.925C85.964 226.044 86.4289 228.236 86.9634 230.251C87.551 232.465 88.1925 234.351 88.8511 235.673C89.0174 236.006 89.1757 236.284 89.3218 236.51C89.7503 236.834 90.1865 237.164 90.6334 237.495C95.8494 241.358 102.518 245.833 111.041 251.122L111.255 251.263C112.311 251.985 113.087 253.019 113.667 254.058L113.897 254.489C114.421 255.515 114.847 256.669 115.202 257.857C116.013 260.575 116.534 263.782 116.875 266.78C117.212 269.752 117.381 272.61 117.467 274.738L125.562 271.502L125.863 271.381L127.089 270.888L128.257 272.056C131.423 275.221 136.455 279.31 141.429 282.598H141.43C143.913 284.239 146.33 285.647 148.448 286.634C150.644 287.657 152.234 288.09 153.164 288.09L153.432 288.082C154.797 288.008 156.503 287.377 158.462 286.077C160.521 284.712 162.665 282.738 164.706 280.38C168.808 275.639 172.221 269.666 173.625 264.753L173.858 263.937L174.792 260.667L177.195 263.071L177.795 263.672C185.731 271.607 189.55 279.556 190.27 287.311C190.988 295.04 188.597 302.241 184.744 308.646C177.101 321.35 163.339 331.523 154.592 337.607L152.953 338.748L152.419 337.982C152.173 339.186 151.608 340.475 150.961 341.693C150.291 342.956 149.449 344.301 148.548 345.629C146.94 348 145.066 350.426 143.478 352.42C143.516 355.809 143.772 359.096 144.056 362.244C144.361 365.615 144.704 368.914 144.802 371.864C144.993 377.583 144.346 383.393 139.209 386.476C136.666 388.001 133.456 388.334 130.271 388.099C127.036 387.86 123.508 387.011 120.065 385.842C113.204 383.511 106.262 379.762 102.056 376.37L100.502 375.116L101.753 373.56L102.067 373.17L102.071 373.166L102.385 372.777L103.641 371.225L105.196 372.479C108.866 375.438 115.262 378.929 121.673 381.107C124.867 382.192 127.962 382.916 130.64 383.113C133.368 383.315 135.367 382.949 136.635 382.188C139.119 380.698 139.995 377.741 139.805 372.03C139.713 369.265 139.391 366.181 139.076 362.693C138.765 359.249 138.47 355.489 138.47 351.561V350.683L138.91 350.134L139.02 349.996L139.021 349.994C140.693 347.913 142.723 345.308 144.41 342.821C145.253 341.578 145.989 340.397 146.544 339.35C146.871 338.733 147.109 338.21 147.273 337.781C145.265 338.228 141.624 339.784 135.633 343.221L132.008 366.427V366.428L131.897 367.138L131.453 369.976L128.945 368.574L128.318 368.224V368.223L102.407 353.743L101.038 352.979L101.31 351.984L98.3209 350.314L101.806 350.184L102.128 349.017L103.697 349.062C107.837 349.18 113.752 348.269 118.165 345.374C120.329 343.954 122.09 342.086 123.168 339.652C124.244 337.222 124.719 334.045 124.024 329.87C123.041 323.973 122.413 318.73 121.451 313.764C120.503 308.875 119.305 304.719 117.37 301.365C115.474 298.08 112.845 295.516 108.89 293.816C104.87 292.089 99.3312 291.193 91.5504 291.563C84.1453 291.916 79.3102 294.523 76.065 298.113C72.7565 301.774 70.9014 306.678 69.941 311.905C68.9833 317.118 68.9504 322.456 69.1304 326.795C69.2204 328.962 69.3615 330.845 69.4634 332.358C69.5137 333.104 69.5558 333.782 69.5738 334.342C69.5755 334.396 69.5745 334.451 69.5757 334.506L79.6763 344.013L91.7183 327.958L91.7213 327.953L91.8716 327.754L92.4722 326.959H93.7183C94.5467 326.959 95.3742 327.211 96.0689 327.771L96.2066 327.886V327.887C96.8753 328.481 97.234 329.227 97.4361 329.864V329.865C97.8232 331.088 97.8424 332.587 97.7496 334.047C97.5588 337.048 96.7823 341.224 95.8882 345.93C94.1308 355.179 91.8106 367.002 91.6539 378.535C91.823 378.664 92.0129 378.81 92.2232 378.969C93.2191 379.721 94.6638 380.796 96.4478 382.073C100.02 384.632 104.94 387.997 110.342 391.238C115.757 394.487 121.59 397.572 127 399.604C132.51 401.675 137.152 402.487 140.391 401.716C141.63 401.42 143.638 400.088 146.384 397.248C149.029 394.514 152.042 390.724 155.321 386.13C161.872 376.951 169.304 364.815 176.728 352.109C184.15 339.406 191.512 326.224 197.959 314.919C204.365 303.684 209.919 294.208 213.64 289.115L213.685 289.054L213.875 288.793L214.137 288.604L214.203 288.558C219.946 284.435 229.469 279.826 239.43 279.574C244.455 279.447 249.642 280.431 254.475 283.198C255.003 283.5 255.523 283.825 256.039 284.168C251.929 276.408 246.072 267.904 237.572 260.569C223.03 248.022 200.466 238.653 164.884 242.772C126.746 247.189 101.003 236.467 85.5767 223.925ZM202.331 167.234C178.82 142.044 157.556 135.235 139.489 138.071C121.778 140.852 106.435 152.999 94.4986 167.973C97.8887 173.191 102.526 179.395 111.756 184.416C121.942 189.957 137.98 194.19 164.539 193.587C192.523 192.951 215.493 210.574 232.667 232.18C239.235 240.443 245.004 249.352 249.94 258.169C252.816 262.549 255.523 267.328 258.02 272.537C250.431 241.64 233.516 206.582 202.331 167.234ZM81.6578 187.29C78.7075 192.625 76.2197 197.905 74.2339 202.854C76.0582 206.537 79.1983 211.062 83.8257 215.65C97.2031 228.915 122.889 242.602 164.308 237.807C201.128 233.543 225.127 243.226 240.838 256.782C242.82 258.492 244.664 260.26 246.382 262.063C246.144 261.631 245.905 261.198 245.663 260.765C236.645 247.077 225.986 237.597 215.184 231.199C196.305 220.017 176.911 218.198 164.964 219.897L164.958 219.899L164.883 219.911L164.807 219.917C124.086 223.549 93.8815 205.438 81.6578 187.29ZM91.2857 172.175C88.8386 175.518 86.5684 178.953 84.483 182.403C94.4799 199.393 123.498 218.566 164.324 214.938C177.326 213.105 197.844 215.118 217.732 226.897C220.886 228.765 224.022 230.878 227.109 233.259C210.559 213.14 189.493 198.021 164.654 198.585C137.561 199.201 120.571 194.903 109.367 188.808C99.983 183.703 94.8397 177.429 91.2857 172.175ZM72.5338 209.846C72.4152 213.78 72.2543 216.568 73.6675 219.973H73.6666C74.8278 222.77 77.1368 226.045 81.8277 230.342C80.8311 226.291 80.1059 221.845 79.691 218.577C76.7774 215.613 74.3984 212.647 72.5338 209.846Z" fill="#C08E88"/>
</svg>
