<svg width="296" height="460" viewBox="0 0 296 460" fill="none" xmlns="http://www.w3.org/2000/svg">
<path d="M142.116 7.30273L142.689 8.12891C195.187 83.8335 255.663 168.582 281.526 246.839C294.271 285.405 298.705 322.657 289.46 356.621L289.009 358.236C279.153 392.708 255.132 423.387 212.005 448.416L210.275 449.42L209.272 447.69L209.227 447.613L209.155 447.56L207.55 446.365L208.744 444.761C226.527 420.881 269.897 374.51 263.627 302.934C260.6 297.299 256.98 293.713 253.178 291.536V291.535C249.273 289.3 245.024 288.464 240.745 288.572C232.279 288.786 223.888 292.701 218.633 296.389C215.11 301.286 209.802 310.327 203.491 321.396C197.076 332.645 189.672 345.9 182.233 358.632C174.795 371.361 167.27 383.661 160.579 393.035C157.238 397.717 154.059 401.734 151.166 404.725C148.376 407.609 145.5 409.921 142.739 410.579H142.738C137.975 411.713 132.136 410.428 126.43 408.284C120.622 406.102 114.498 402.849 108.958 399.525C103.406 396.194 98.3696 392.748 94.7259 390.139C92.9025 388.833 91.4219 387.733 90.3968 386.958C89.8853 386.572 89.4847 386.265 89.2112 386.054C89.106 385.972 89.0193 385.905 88.9525 385.853L88.9485 385.851L88.8167 385.747L88.8099 385.741L88.8021 385.734L88.7894 385.725L88.598 385.574L87.8333 384.974V383.759L87.8401 382.589C87.9903 370.489 90.4203 358.176 92.1644 348.997C92.9356 344.938 93.5527 341.583 93.8284 339.061L83.1878 353.25V353.251L82.8519 353.698L81.5081 355.486L79.8802 353.953L79.4739 353.57V353.569L69.9271 344.584C63.564 390.879 100.583 429.324 149.418 452.335C153.277 452.15 157.951 450.508 163.572 446.943L164.684 446.221C170.294 442.492 176.67 437.001 183.883 429.539C199.272 413.62 218.228 388.995 241.442 354.174L242.551 352.51L246.711 355.283L245.602 356.947C222.327 391.859 203.176 416.773 187.477 433.013C179.628 441.132 172.579 447.15 166.249 451.165C159.938 455.168 154.168 457.292 148.923 457.354H148.891C148.145 457.353 147.415 457.293 146.707 457.175C129.81 459.994 106.669 454.955 84.0081 443.093C61.0735 431.087 38.3094 411.936 22.5999 386.226C6.86951 360.48 -1.7519 328.209 3.57843 290.121C8.89887 252.105 28.0929 208.454 67.6917 159.792L106.385 93.7871L123.813 52.8701L138.258 8.77539L138.572 7.81934L139.824 4L142.116 7.30273ZM128.53 54.5361L128.527 54.5459L128.52 54.5664L128.488 54.6621L128.447 54.7539L128.438 54.7734L110.925 95.8926L110.92 95.9033L110.908 95.9326L110.853 96.0586L110.783 96.1758L110.766 96.2031L71.9134 162.482L71.9114 162.484L71.8919 162.518L71.8089 162.659L71.7044 162.784L71.68 162.813C32.4172 211.025 13.6965 253.896 8.5296 290.814C3.36691 327.705 11.712 358.816 26.8665 383.618C42.0421 408.455 64.0829 427.02 86.3275 438.664C105.455 448.676 124.503 453.452 139.287 452.894C92.5754 428.601 56.6861 388.9 65.5511 340.277L65.765 339.146C65.7658 339.132 65.7681 339.094 65.7698 339.026C65.7728 338.906 65.7724 338.735 65.765 338.503C65.7501 338.041 65.7138 337.444 65.6634 336.695C65.5641 335.222 65.4169 333.252 65.3235 331.002C65.137 326.505 65.1572 320.744 66.2122 315.002C67.2648 309.274 69.3827 303.365 73.5443 298.761C77.7691 294.087 83.9026 290.978 92.5013 290.568C100.724 290.177 107.094 291.091 112.053 293.222C117.076 295.38 120.498 298.723 122.889 302.868C125.24 306.944 126.567 311.746 127.548 316.812C128.515 321.8 129.221 327.513 130.144 333.048C130.972 338.018 130.463 342.209 128.928 345.677C127.394 349.141 124.914 351.704 122.094 353.554C119.266 355.409 116.058 356.573 112.971 357.254L128.811 366.106L132.068 345.267V345.263L132.105 345.028L132.253 344.094L133.07 343.615L133.275 343.495L133.278 343.493C140.123 339.5 144.788 337.378 147.787 336.812C149.1 336.565 150.809 336.473 152.153 337.443L152.416 337.651V337.652C152.46 337.69 152.503 337.729 152.544 337.768L152.924 337.504C161.707 331.394 174.618 321.751 181.647 310.068C185.129 304.28 187.072 298.141 186.481 291.772C185.971 286.283 183.552 280.371 178.18 274.146C176.207 278.797 173.138 283.652 169.676 287.652C167.429 290.249 164.952 292.561 162.414 294.244C160.066 295.802 157.481 296.94 154.873 297.076L154.352 297.09C152.28 297.09 149.859 296.253 147.524 295.165C145.109 294.04 142.47 292.493 139.862 290.769C135.219 287.7 130.506 283.954 127.103 280.744L117.174 284.717L116.489 284.991L113.745 286.09V282.343C113.745 282.301 113.745 282.245 113.744 282.171C113.743 282.016 113.741 281.786 113.736 281.494C113.726 280.908 113.705 280.06 113.664 279.031C113.583 276.97 113.419 274.201 113.095 271.345C112.769 268.47 112.289 265.596 111.6 263.288C111.298 262.278 110.973 261.433 110.635 260.77L110.49 260.496C110.138 259.867 109.843 259.556 109.662 259.419L109.592 259.37C101.187 254.153 94.5064 249.684 89.2015 245.775C88.4621 245.507 87.8616 245.056 87.3909 244.587L87.1605 244.346C87.076 244.252 86.9951 244.157 86.9173 244.062C77.1438 236.594 72.3861 231.062 70.2386 225.889H70.2376C67.9761 220.44 68.7805 215.503 68.7806 210.756V210.332L68.8929 210.011L68.9212 209.93L68.9222 209.926C69.3693 208.655 69.8516 207.356 70.3685 206.034C72.951 199.431 76.3983 192.25 80.6263 185.096C83.586 180.087 86.934 175.083 90.6439 170.293C103.092 154.221 119.844 140.281 139.901 137.132C160.128 133.957 182.971 141.86 207.242 167.896L207.256 167.91L207.303 167.96L207.346 168.014L207.359 168.029L207.367 168.038L207.374 168.048C248.128 219.444 265.124 264.007 268.567 301.985C274.38 366.113 241.454 410.79 221.152 436.873C256.03 413.832 275.674 386.69 284.202 356.862L284.636 355.31C293.529 322.64 289.351 286.458 276.777 248.408C251.658 172.402 193.414 89.9747 141.446 15.1055L128.53 54.5361ZM86.765 227.925C87.1523 230.044 87.6171 232.236 88.1517 234.251C88.7392 236.465 89.3808 238.351 90.0394 239.673C90.2057 240.006 90.3639 240.284 90.5101 240.51C90.9385 240.834 91.3747 241.164 91.8216 241.495C97.0376 245.358 103.707 249.833 112.229 255.122L112.444 255.263C113.499 255.985 114.275 257.019 114.855 258.058L115.085 258.489C115.609 259.515 116.035 260.669 116.39 261.857C117.201 264.575 117.722 267.782 118.063 270.78C118.4 273.753 118.569 276.61 118.656 278.738L126.75 275.502L127.051 275.381L128.278 274.888L129.446 276.056C132.612 279.221 137.643 283.31 142.617 286.598H142.618C145.102 288.239 147.518 289.647 149.636 290.634C151.832 291.657 153.422 292.09 154.352 292.09L154.62 292.082C155.986 292.008 157.691 291.377 159.651 290.077C161.709 288.712 163.853 286.738 165.894 284.38C169.996 279.639 173.409 273.666 174.813 268.753L175.046 267.937L175.98 264.667L178.383 267.071L178.984 267.672C186.919 275.607 190.738 283.556 191.458 291.311C192.176 299.04 189.785 306.241 185.932 312.646C178.289 325.35 164.527 335.523 155.781 341.607L154.141 342.748L153.607 341.982C153.361 343.186 152.796 344.475 152.15 345.693C151.48 346.956 150.638 348.301 149.737 349.629C148.128 352 146.254 354.426 144.666 356.42C144.705 359.809 144.96 363.096 145.244 366.244C145.549 369.615 145.892 372.914 145.991 375.864C146.181 381.583 145.534 387.393 140.397 390.476C137.854 392.001 134.644 392.334 131.459 392.099C128.224 391.86 124.696 391.011 121.253 389.842C114.392 387.511 107.45 383.762 103.244 380.37L101.69 379.116L102.942 377.56L103.255 377.17L103.259 377.166L103.574 376.777L104.829 375.225L106.384 376.479C110.054 379.438 116.45 382.929 122.862 385.107C126.055 386.192 129.15 386.915 131.828 387.113C134.556 387.315 136.556 386.949 137.824 386.188C140.308 384.698 141.184 381.741 140.993 376.03C140.901 373.265 140.579 370.181 140.264 366.693C139.953 363.249 139.659 359.489 139.659 355.561V354.683L140.098 354.134L140.208 353.996L140.209 353.994C141.881 351.913 143.911 349.308 145.598 346.821C146.442 345.578 147.177 344.397 147.733 343.35C148.06 342.734 148.297 342.21 148.461 341.781C146.454 342.228 142.812 343.784 136.822 347.221L133.197 370.427V370.428L133.085 371.138L132.641 373.976L130.133 372.574L129.506 372.224V372.223L103.595 357.743L102.226 356.979L102.498 355.984L99.5091 354.314L102.994 354.184L103.317 353.017L104.885 353.062C109.025 353.18 114.94 352.269 119.353 349.374C121.518 347.954 123.278 346.086 124.356 343.652C125.432 341.222 125.908 338.045 125.212 333.87C124.229 327.973 123.601 322.73 122.639 317.764C121.692 312.875 120.493 308.719 118.558 305.365C116.663 302.08 114.034 299.516 110.078 297.816C106.059 296.089 100.519 295.193 92.7386 295.563C85.3337 295.916 80.4983 298.523 77.2532 302.113C73.9449 305.774 72.0896 310.678 71.1292 315.905C70.1715 321.118 70.1386 326.456 70.3187 330.795C70.4086 332.962 70.5497 334.845 70.6517 336.358C70.7019 337.104 70.744 337.782 70.762 338.342C70.7638 338.396 70.7627 338.451 70.764 338.506L80.8646 348.013L92.9066 331.958L92.9095 331.953L93.0599 331.754L93.6605 330.959H94.9066C95.7349 330.959 96.5624 331.211 97.2571 331.771L97.3948 331.886V331.887C98.0636 332.481 98.4222 333.227 98.6243 333.864V333.865C99.0115 335.088 99.0306 336.587 98.9378 338.047C98.747 341.048 97.9706 345.224 97.0765 349.93C95.319 359.179 92.9988 371.002 92.8421 382.535C93.0112 382.664 93.2012 382.81 93.4114 382.969C94.4073 383.721 95.852 384.796 97.636 386.073C101.208 388.632 106.129 391.997 111.531 395.238C116.946 398.487 122.779 401.572 128.188 403.604C133.699 405.675 138.34 406.487 141.579 405.716C142.818 405.421 144.826 404.088 147.573 401.248C150.217 398.514 153.23 394.724 156.509 390.13C163.06 380.951 170.493 368.815 177.916 356.109C185.339 343.406 192.701 330.224 199.147 318.919C205.553 307.684 211.107 298.208 214.828 293.115L214.873 293.054L215.063 292.793L215.326 292.604L215.391 292.558C221.134 288.435 230.657 283.826 240.618 283.574C245.643 283.447 250.83 284.431 255.663 287.198C256.191 287.5 256.712 287.825 257.227 288.168C253.117 280.408 247.26 271.904 238.76 264.569C224.218 252.023 201.654 242.653 166.073 246.772C127.934 251.188 102.191 240.467 86.765 227.925ZM203.519 171.234C180.008 146.044 158.744 139.235 140.677 142.071C122.966 144.852 107.624 156.999 95.6868 171.973C99.0769 177.191 103.714 183.395 112.945 188.416C123.13 193.957 139.168 198.19 165.727 197.587C193.712 196.951 216.682 214.574 233.855 236.18C240.423 244.443 246.192 253.352 251.128 262.169C254.004 266.549 256.712 271.328 259.208 276.537C251.619 245.64 234.704 210.582 203.519 171.234ZM82.846 191.29C79.8958 196.625 77.4079 201.905 75.4222 206.854C77.2464 210.537 80.3866 215.062 85.014 219.65C98.3912 232.915 124.077 246.602 165.496 241.807C202.316 237.543 226.315 247.226 242.027 260.782C244.008 262.492 245.852 264.26 247.571 266.063C247.333 265.631 247.093 265.198 246.851 264.765C237.833 251.077 227.174 241.597 216.372 235.199C197.493 224.018 178.099 222.198 166.153 223.897L166.146 223.899L166.072 223.911L165.995 223.917C125.274 227.549 95.0697 209.438 82.846 191.29ZM92.4739 176.175C90.0269 179.518 87.7566 182.953 85.6712 186.403C95.668 203.393 124.686 222.566 165.512 218.938C178.514 217.105 199.032 219.118 218.92 230.897C222.074 232.765 225.21 234.878 228.297 237.259C211.747 217.14 190.681 202.021 165.842 202.585C138.749 203.201 121.759 198.903 110.555 192.808C101.171 187.703 96.0279 181.429 92.4739 176.175ZM73.722 213.846C73.6034 217.78 73.4426 220.568 74.8558 223.973H74.8548C76.016 226.77 78.3251 230.045 83.0159 234.342C82.0193 230.291 81.2942 225.845 80.8792 222.577C77.9657 219.613 75.5866 216.647 73.722 213.846Z" fill="#C08E88"/>
<path d="M142.116 7.30273L143.348 6.44763L143.348 6.44754L142.116 7.30273ZM142.689 8.12891L143.921 7.27413L143.921 7.2738L142.689 8.12891ZM281.526 246.839L282.95 246.368L282.95 246.368L281.526 246.839ZM289.46 356.621L290.905 357.025L290.908 357.015L289.46 356.621ZM289.009 358.236L290.451 358.649L290.454 358.64L289.009 358.236ZM212.005 448.416L212.758 449.713L212.758 449.713L212.005 448.416ZM210.275 449.42L208.977 450.172L209.73 451.47L211.027 450.717L210.275 449.42ZM209.272 447.69L210.569 446.938L210.568 446.936L209.272 447.69ZM209.227 447.613L210.523 446.858L210.368 446.593L210.122 446.409L209.227 447.613ZM209.155 447.56L208.259 448.763L208.26 448.763L209.155 447.56ZM207.55 446.365L206.347 445.47L205.451 446.673L206.654 447.568L207.55 446.365ZM208.744 444.761L207.541 443.865L207.541 443.865L208.744 444.761ZM263.627 302.934L265.122 302.803L265.095 302.495L264.949 302.224L263.627 302.934ZM253.178 291.536H251.678V292.406L252.433 292.838L253.178 291.536ZM253.178 291.535H254.678V290.665L253.923 290.233L253.178 291.535ZM240.745 288.572L240.708 287.073L240.708 287.073L240.745 288.572ZM218.633 296.389L217.772 295.161L217.564 295.307L217.415 295.513L218.633 296.389ZM203.491 321.396L202.187 320.652L202.187 320.652L203.491 321.396ZM182.233 358.632L183.528 359.389L183.528 359.389L182.233 358.632ZM160.579 393.035L161.8 393.907L161.8 393.907L160.579 393.035ZM151.166 404.725L152.244 405.767L152.245 405.767L151.166 404.725ZM142.739 410.579V412.079H142.915L143.086 412.038L142.739 410.579ZM142.738 410.579V409.079H142.562L142.39 409.12L142.738 410.579ZM126.43 408.284L125.902 409.688L125.902 409.688L126.43 408.284ZM108.958 399.525L108.187 400.812L108.187 400.812L108.958 399.525ZM94.7259 390.139L93.8525 391.358L93.8525 391.358L94.7259 390.139ZM90.3968 386.958L89.4926 388.155L89.4926 388.155L90.3968 386.958ZM89.2112 386.054L88.2945 387.241L88.2945 387.241L89.2112 386.054ZM88.9525 385.853L89.8736 384.669L89.7563 384.577L89.6233 384.511L88.9525 385.853ZM88.9485 385.851L88.0222 387.03L88.1418 387.124L88.2777 387.192L88.9485 385.851ZM88.8167 385.747L87.8405 386.886L87.865 386.907L87.8904 386.927L88.8167 385.747ZM88.8099 385.741L87.8221 386.87L87.8279 386.875L87.8337 386.88L88.8099 385.741ZM88.8021 385.734L89.7898 384.606L89.7542 384.574L89.7166 384.545L88.8021 385.734ZM88.7894 385.725L87.8626 386.904L87.8687 386.909L87.8748 386.914L88.7894 385.725ZM88.598 385.574L89.5247 384.395L89.5245 384.395L88.598 385.574ZM87.8333 384.974H86.3333V385.703L86.9068 386.153L87.8333 384.974ZM87.8333 383.759L86.3333 383.75V383.759H87.8333ZM87.8401 382.589L86.3402 382.57L86.3402 382.58L87.8401 382.589ZM92.1644 348.997L93.638 349.277L93.638 349.277L92.1644 348.997ZM93.8284 339.061L95.3196 339.224L95.9146 333.778L92.6284 338.161L93.8284 339.061ZM83.1878 353.25L81.9877 352.35L81.6878 352.75V353.25H83.1878ZM83.1878 353.251L84.3872 354.152L84.6878 353.752V353.251H83.1878ZM82.8519 353.698L84.051 354.599L84.0512 354.599L82.8519 353.698ZM81.5081 355.486L80.4797 356.578L81.7001 357.728L82.7073 356.387L81.5081 355.486ZM79.8802 353.953L78.8515 355.045L78.8518 355.045L79.8802 353.953ZM79.4739 353.57H77.9739V354.218L78.4452 354.662L79.4739 353.57ZM79.4739 353.569H80.9739V352.921L80.502 352.477L79.4739 353.569ZM69.9271 344.584L70.9551 343.492L68.8371 341.498L68.441 344.38L69.9271 344.584ZM149.418 452.335L148.779 453.692L149.117 453.851L149.49 453.833L149.418 452.335ZM163.572 446.943L164.375 448.21L164.382 448.206L164.389 448.201L163.572 446.943ZM164.684 446.221L165.501 447.479L165.508 447.474L165.514 447.47L164.684 446.221ZM183.883 429.539L184.962 430.582L184.962 430.582L183.883 429.539ZM241.442 354.174L242.69 355.006L242.69 355.006L241.442 354.174ZM242.551 352.51L243.383 351.262L242.135 350.43L241.303 351.678L242.551 352.51ZM246.711 355.283L247.959 356.115L248.791 354.867L247.543 354.035L246.711 355.283ZM245.602 356.947L246.85 357.779L246.85 357.779L245.602 356.947ZM187.477 433.013L188.555 434.055L188.555 434.055L187.477 433.013ZM166.249 451.165L167.053 452.432L167.053 452.432L166.249 451.165ZM148.923 457.354V458.854H148.932L148.941 458.853L148.923 457.354ZM148.891 457.354L148.889 458.854H148.891V457.354ZM146.707 457.175L146.955 455.695L146.708 455.654L146.46 455.695L146.707 457.175ZM84.0081 443.093L83.3125 444.422L83.3125 444.422L84.0081 443.093ZM22.5999 386.226L21.3199 387.008L21.3199 387.008L22.5999 386.226ZM3.57843 290.121L2.09291 289.913L2.09291 289.913L3.57843 290.121ZM67.6917 159.792L68.8552 160.739L68.9277 160.65L68.9858 160.551L67.6917 159.792ZM106.385 93.7871L107.679 94.5457L107.728 94.463L107.765 94.3749L106.385 93.7871ZM123.813 52.8701L125.193 53.4579L125.218 53.3985L125.238 53.3371L123.813 52.8701ZM138.258 8.77539L136.833 8.30804L136.833 8.30841L138.258 8.77539ZM138.572 7.81934L139.997 8.28668L139.997 8.28656L138.572 7.81934ZM139.824 4L141.056 3.1448L139.337 0.668165L138.398 3.53277L139.824 4ZM128.53 54.5361L127.104 54.0692L127.098 54.0871L127.093 54.1051L128.53 54.5361ZM128.527 54.5459L129.95 55.0202L129.957 54.9987L129.963 54.9769L128.527 54.5459ZM128.52 54.5664L129.941 55.0451L129.943 55.0407L128.52 54.5664ZM128.488 54.6621L129.857 55.274L129.886 55.2087L129.909 55.1408L128.488 54.6621ZM128.447 54.7539L129.814 55.3695L129.816 55.3658L128.447 54.7539ZM128.438 54.7734L127.07 54.1579L127.064 54.1717L127.058 54.1857L128.438 54.7734ZM110.925 95.8926L112.291 96.5133L112.298 96.4969L112.305 96.4803L110.925 95.8926ZM110.92 95.9033L109.555 95.2826L109.549 95.2947L109.544 95.3069L110.92 95.9033ZM110.908 95.9326L112.283 96.5299L112.284 96.529L110.908 95.9326ZM110.853 96.0586L112.139 96.8303L112.19 96.7461L112.229 96.6559L110.853 96.0586ZM110.783 96.1758L112.065 96.9543L112.069 96.9475L110.783 96.1758ZM110.766 96.2031L109.484 95.4247L109.478 95.4346L109.472 95.4446L110.766 96.2031ZM71.9134 162.482L72.9741 163.543L73.1101 163.407L73.2074 163.241L71.9134 162.482ZM71.9114 162.484L70.8508 161.424L70.7155 161.559L70.6185 161.724L71.9114 162.484ZM71.8919 162.518L70.599 161.757L70.5979 161.759L71.8919 162.518ZM71.8089 162.659L72.9598 163.621L73.0398 163.525L73.1029 163.418L71.8089 162.659ZM71.7044 162.784L70.5535 161.822L70.5521 161.824L71.7044 162.784ZM71.68 162.813L70.5277 161.853L70.5222 161.86L70.5169 161.866L71.68 162.813ZM8.5296 290.814L7.04408 290.607L7.04408 290.607L8.5296 290.814ZM26.8665 383.618L25.5865 384.4L25.5865 384.4L26.8665 383.618ZM86.3275 438.664L85.6318 439.993L85.6318 439.993L86.3275 438.664ZM139.287 452.894L139.344 454.392L145.009 454.178L139.979 451.563L139.287 452.894ZM65.5511 340.277L64.0772 339.999L64.0754 340.008L65.5511 340.277ZM65.765 339.146L67.2388 339.425L67.2563 339.333L67.2621 339.239L65.765 339.146ZM65.7698 339.026L67.2694 339.064L67.2694 339.064L65.7698 339.026ZM65.765 338.503L67.2642 338.455L67.2642 338.455L65.765 338.503ZM65.6634 336.695L67.16 336.594L67.16 336.594L65.6634 336.695ZM65.3235 331.002L63.8248 331.064L63.8248 331.064L65.3235 331.002ZM66.2122 315.002L64.7369 314.731L64.7369 314.731L66.2122 315.002ZM73.5443 298.761L72.4315 297.755L72.4315 297.755L73.5443 298.761ZM92.5013 290.568L92.4299 289.07L92.4299 289.07L92.5013 290.568ZM112.053 293.222L112.645 291.844L112.645 291.844L112.053 293.222ZM122.889 302.868L124.188 302.119L124.188 302.119L122.889 302.868ZM127.548 316.812L129.021 316.526L129.021 316.526L127.548 316.812ZM130.144 333.048L131.623 332.801L131.623 332.801L130.144 333.048ZM128.928 345.677L130.3 346.284L130.3 346.284L128.928 345.677ZM122.094 353.554L122.917 354.808L122.917 354.808L122.094 353.554ZM112.971 357.254L112.648 355.789L108.796 356.639L112.239 358.563L112.971 357.254ZM128.811 366.106L128.079 367.416L129.96 368.467L130.293 366.338L128.811 366.106ZM132.068 345.267L133.55 345.498L133.568 345.383V345.267H132.068ZM132.068 345.263L130.586 345.028L130.568 345.145V345.263H132.068ZM132.105 345.028L130.623 344.793L130.623 344.794L132.105 345.028ZM132.253 344.094L131.495 342.8L130.883 343.158L130.772 343.858L132.253 344.094ZM133.07 343.615L132.312 342.321L132.311 342.321L133.07 343.615ZM133.275 343.495L134.033 344.789L134.07 344.767L134.107 344.743L133.275 343.495ZM133.278 343.493L132.522 342.197L132.483 342.22L132.446 342.245L133.278 343.493ZM147.787 336.812L147.51 335.338L147.509 335.338L147.787 336.812ZM152.153 337.443L153.082 336.266L153.057 336.246L153.031 336.227L152.153 337.443ZM152.416 337.651H153.916V336.924L153.345 336.474L152.416 337.651ZM152.416 337.652H150.916V338.338L151.435 338.787L152.416 337.652ZM152.544 337.768L151.515 338.859L152.4 339.694L153.4 339L152.544 337.768ZM152.924 337.504L153.779 338.736L153.781 338.735L152.924 337.504ZM181.647 310.068L182.932 310.842L182.932 310.842L181.647 310.068ZM186.481 291.772L187.974 291.634L187.974 291.634L186.481 291.772ZM178.18 274.146L179.316 273.166L177.741 271.34L176.799 273.56L178.18 274.146ZM169.676 287.652L170.81 288.634L170.81 288.634L169.676 287.652ZM162.414 294.244L163.243 295.494L163.243 295.494L162.414 294.244ZM154.873 297.076L154.913 298.576L154.932 298.575L154.952 298.574L154.873 297.076ZM154.352 297.09L154.352 298.59L154.371 298.59L154.391 298.589L154.352 297.09ZM147.524 295.165L146.89 296.525L146.89 296.525L147.524 295.165ZM139.862 290.769L139.034 292.02L139.035 292.02L139.862 290.769ZM127.103 280.744L128.132 279.653L127.435 278.996L126.546 279.351L127.103 280.744ZM117.174 284.717L116.617 283.324L116.617 283.324L117.174 284.717ZM116.489 284.991L115.931 283.599L115.931 283.599L116.489 284.991ZM113.745 286.09H112.245V288.306L114.303 287.482L113.745 286.09ZM113.745 282.343H115.245L115.245 282.337L113.745 282.343ZM113.744 282.171L115.244 282.159L115.244 282.159L113.744 282.171ZM113.736 281.494L115.235 281.468L115.235 281.468L113.736 281.494ZM113.664 279.031L115.163 278.972L115.163 278.972L113.664 279.031ZM113.095 271.345L114.585 271.176L114.585 271.176L113.095 271.345ZM111.6 263.288L113.037 262.859L113.037 262.859L111.6 263.288ZM110.635 260.77L111.972 260.089L111.966 260.077L111.959 260.065L110.635 260.77ZM110.49 260.496L111.814 259.791L111.807 259.778L111.799 259.765L110.49 260.496ZM109.662 259.419L110.571 258.226L110.545 258.206L110.518 258.187L109.662 259.419ZM109.592 259.37L110.448 258.138L110.416 258.116L110.383 258.096L109.592 259.37ZM89.2015 245.775L90.0912 244.568L89.9169 244.439L89.7134 244.365L89.2015 245.775ZM87.3909 244.587L86.3064 245.623L86.3189 245.636L86.3317 245.649L87.3909 244.587ZM87.1605 244.346L86.0487 245.353L86.0621 245.367L86.0759 245.382L87.1605 244.346ZM86.9173 244.062L88.0793 243.113L87.9679 242.977L87.828 242.87L86.9173 244.062ZM70.2386 225.889L71.624 225.314L71.24 224.389H70.2386V225.889ZM70.2376 225.889L68.8522 226.464L69.2361 227.389H70.2376V225.889ZM68.7806 210.756L70.2806 210.756V210.756H68.7806ZM68.7806 210.332L67.3646 209.837L67.2806 210.077V210.332H68.7806ZM68.8929 210.011L70.3089 210.506L70.3089 210.506L68.8929 210.011ZM68.9212 209.93L70.3373 210.424L70.3598 210.36L70.3764 210.293L68.9212 209.93ZM68.9222 209.926L67.5072 209.428L67.484 209.494L67.467 209.562L68.9222 209.926ZM70.3685 206.034L68.9715 205.488L68.9715 205.488L70.3685 206.034ZM80.6263 185.096L79.3349 184.333L79.3349 184.333L80.6263 185.096ZM90.6439 170.293L89.458 169.374L89.458 169.374L90.6439 170.293ZM139.901 137.132L139.668 135.65L139.668 135.65L139.901 137.132ZM207.242 167.896L206.145 168.918L206.146 168.919L207.242 167.896ZM207.256 167.91L206.16 168.934L206.164 168.938L207.256 167.91ZM207.303 167.96L208.474 167.023L208.437 166.976L208.395 166.932L207.303 167.96ZM207.346 168.014L206.175 168.951L206.182 168.96L207.346 168.014ZM207.359 168.029L206.195 168.975L206.215 169.001L206.238 169.026L207.359 168.029ZM207.367 168.038L208.538 167.101L208.513 167.071L208.488 167.042L207.367 168.038ZM207.374 168.048L208.55 167.116L208.546 167.111L207.374 168.048ZM268.567 301.985L270.061 301.85L270.061 301.85L268.567 301.985ZM221.152 436.873L219.968 435.952L221.978 438.125L221.152 436.873ZM284.202 356.862L285.645 357.275L285.647 357.266L284.202 356.862ZM284.636 355.31L286.081 355.713L286.083 355.704L284.636 355.31ZM276.777 248.408L278.201 247.938L278.201 247.938L276.777 248.408ZM141.446 15.1055L142.678 14.2501L140.959 11.7733L140.02 14.6385L141.446 15.1055ZM86.765 227.925L87.7112 226.761L84.559 224.198L85.2894 228.194L86.765 227.925ZM88.1517 234.251L86.7018 234.636L86.7018 234.636L88.1517 234.251ZM90.0394 239.673L88.6969 240.342L88.6969 240.342L90.0394 239.673ZM90.5101 240.51L89.2517 241.326L89.3947 241.547L89.6042 241.705L90.5101 240.51ZM91.8216 241.495L90.9289 242.701L90.9289 242.701L91.8216 241.495ZM112.229 255.122L113.05 253.867L113.035 253.857L113.02 253.848L112.229 255.122ZM112.444 255.263L113.29 254.025L113.278 254.016L113.265 254.008L112.444 255.263ZM114.855 258.058L116.178 257.351L116.171 257.339L116.164 257.326L114.855 258.058ZM115.085 258.489L116.421 257.807L116.415 257.795L116.408 257.783L115.085 258.489ZM116.39 261.857L117.827 261.428L117.827 261.428L116.39 261.857ZM118.063 270.78L119.553 270.611L119.553 270.611L118.063 270.78ZM118.656 278.738L117.157 278.799L117.243 280.919L119.212 280.131L118.656 278.738ZM126.75 275.502L127.307 276.895L127.311 276.893L126.75 275.502ZM127.051 275.381L126.492 273.989L126.491 273.989L127.051 275.381ZM128.278 274.888L129.338 273.827L128.638 273.126L127.718 273.496L128.278 274.888ZM129.446 276.056L128.385 277.116L128.385 277.116L129.446 276.056ZM142.617 286.598L141.79 287.849L142.167 288.098H142.617V286.598ZM142.618 286.598L143.446 285.346L143.069 285.098H142.618V286.598ZM149.636 290.634L149.003 291.993L149.003 291.993L149.636 290.634ZM154.352 292.09L154.351 293.59L154.373 293.59L154.395 293.589L154.352 292.09ZM154.62 292.082L154.664 293.581L154.683 293.581L154.702 293.58L154.62 292.082ZM159.651 290.077L160.48 291.327L160.48 291.327L159.651 290.077ZM165.894 284.38L167.028 285.361L167.028 285.361L165.894 284.38ZM174.813 268.753L173.371 268.341L173.371 268.341L174.813 268.753ZM175.046 267.937L176.488 268.349L176.489 268.348L175.046 267.937ZM175.98 264.667L177.041 263.607L175.238 261.803L174.537 264.255L175.98 264.667ZM178.383 267.071L177.322 268.132L177.322 268.132L178.383 267.071ZM178.984 267.672L180.044 266.611L180.044 266.611L178.984 267.672ZM191.458 291.311L192.952 291.172L192.952 291.172L191.458 291.311ZM185.932 312.646L187.217 313.419L187.217 313.419L185.932 312.646ZM155.781 341.607L156.637 342.839L156.637 342.839L155.781 341.607ZM154.141 342.748L152.911 343.606L153.768 344.835L154.998 343.979L154.141 342.748ZM153.607 341.982L154.837 341.124L152.835 338.255L152.137 341.683L153.607 341.982ZM152.15 345.693L153.475 346.397L153.475 346.397L152.15 345.693ZM149.737 349.629L150.978 350.471L150.978 350.471L149.737 349.629ZM144.666 356.42L143.493 355.485L143.16 355.903L143.166 356.437L144.666 356.42ZM145.244 366.244L143.751 366.379L143.751 366.379L145.244 366.244ZM145.991 375.864L147.49 375.814L147.49 375.814L145.991 375.864ZM140.397 390.476L141.169 391.762L141.169 391.762L140.397 390.476ZM131.459 392.099L131.349 393.595L131.349 393.595L131.459 392.099ZM121.253 389.842L120.771 391.262L120.771 391.262L121.253 389.842ZM103.244 380.37L102.303 381.538L102.303 381.538L103.244 380.37ZM101.69 379.116L100.521 378.176L99.5821 379.343L100.748 380.284L101.69 379.116ZM102.942 377.56L101.773 376.619L101.773 376.619L102.942 377.56ZM103.255 377.17L102.195 376.109L102.137 376.167L102.086 376.23L103.255 377.17ZM103.259 377.166L104.32 378.227L104.376 378.171L104.425 378.109L103.259 377.166ZM103.574 376.777L104.74 377.721L104.74 377.721L103.574 376.777ZM104.829 375.225L105.771 374.057L104.605 373.117L103.663 374.281L104.829 375.225ZM106.384 376.479L105.442 377.646L105.443 377.646L106.384 376.479ZM122.862 385.107L122.379 386.528L122.379 386.528L122.862 385.107ZM131.828 387.113L131.718 388.609L131.718 388.609L131.828 387.113ZM137.824 386.188L138.595 387.475L138.595 387.475L137.824 386.188ZM140.993 376.03L142.493 375.98L142.493 375.98L140.993 376.03ZM140.264 366.693L138.77 366.828L138.77 366.828L140.264 366.693ZM139.659 355.561L138.159 355.561L138.159 355.561L139.659 355.561ZM139.659 354.683L138.488 353.745L138.159 354.156V354.683H139.659ZM140.098 354.134L138.927 353.196L138.927 353.196L140.098 354.134ZM140.208 353.996L141.379 354.934L141.479 354.81L141.55 354.667L140.208 353.996ZM140.209 353.994L139.04 353.055L138.939 353.18L138.868 353.323L140.209 353.994ZM145.598 346.821L146.839 347.663L146.839 347.663L145.598 346.821ZM147.733 343.35L149.058 344.053L149.058 344.053L147.733 343.35ZM148.461 341.781L149.862 342.317L150.86 339.71L148.135 340.317L148.461 341.781ZM136.822 347.221L136.075 345.92L135.451 346.278L135.34 346.989L136.822 347.221ZM133.197 370.427L131.715 370.195L131.697 370.31V370.427H133.197ZM133.197 370.428L134.678 370.66L134.697 370.545V370.428H133.197ZM133.085 371.138L131.603 370.905L131.603 370.906L133.085 371.138ZM132.641 373.976L131.909 375.285L133.79 376.336L134.123 374.208L132.641 373.976ZM130.133 372.574L129.401 373.883L129.401 373.884L130.133 372.574ZM129.506 372.224H128.006V373.103L128.774 373.533L129.506 372.224ZM129.506 372.223H131.006V371.343L130.238 370.913L129.506 372.223ZM103.595 357.743L104.327 356.434L104.326 356.434L103.595 357.743ZM102.226 356.979L100.779 356.582L100.469 357.715L101.494 358.288L102.226 356.979ZM102.498 355.984L103.945 356.381L104.256 355.248L103.23 354.675L102.498 355.984ZM99.5091 354.314L99.4528 352.816L94.1094 353.016L98.7775 355.624L99.5091 354.314ZM102.994 354.184L103.051 355.683L104.148 355.641L104.44 354.583L102.994 354.184ZM103.317 353.017L103.36 351.517L102.184 351.484L101.871 352.617L103.317 353.017ZM104.885 353.062L104.842 354.561L104.842 354.561L104.885 353.062ZM119.353 349.374L120.176 350.628L120.176 350.628L119.353 349.374ZM124.356 343.652L125.727 344.26L125.727 344.26L124.356 343.652ZM125.212 333.87L126.692 333.624L126.692 333.624L125.212 333.87ZM122.639 317.764L124.112 317.478L124.112 317.478L122.639 317.764ZM118.558 305.365L119.857 304.616L119.857 304.616L118.558 305.365ZM110.078 297.816L110.671 296.438L110.671 296.438L110.078 297.816ZM92.7386 295.563L92.6672 294.065L92.6672 294.065L92.7386 295.563ZM77.2532 302.113L76.1405 301.107L76.1404 301.107L77.2532 302.113ZM71.1292 315.905L69.6539 315.634L69.6539 315.634L71.1292 315.905ZM70.3187 330.795L68.82 330.857L68.82 330.857L70.3187 330.795ZM70.6517 336.358L72.1483 336.258L72.1483 336.258L70.6517 336.358ZM70.762 338.342L72.2612 338.294L72.2612 338.294L70.762 338.342ZM70.764 338.506L69.2644 338.541L69.2792 339.168L69.7359 339.598L70.764 338.506ZM80.8646 348.013L79.8365 349.105L81.058 350.255L82.0645 348.913L80.8646 348.013ZM92.9066 331.958L94.1065 332.858L94.153 332.796L94.1928 332.73L92.9066 331.958ZM92.9095 331.953L91.7123 331.049L91.6643 331.113L91.6232 331.181L92.9095 331.953ZM93.0599 331.754L91.8631 330.85L91.8627 330.85L93.0599 331.754ZM93.6605 330.959V329.459H92.9138L92.4636 330.055L93.6605 330.959ZM94.9066 330.959L94.9068 329.459H94.9066V330.959ZM97.2571 331.771L98.2198 330.62L98.2088 330.611L98.1977 330.602L97.2571 331.771ZM97.3948 331.886H98.8948V331.185L98.3575 330.735L97.3948 331.886ZM97.3948 331.887H95.8948V332.56L96.3984 333.008L97.3948 331.887ZM98.6243 333.864H100.124V333.632L100.054 333.411L98.6243 333.864ZM98.6243 333.865H97.1243V334.097L97.1943 334.318L98.6243 333.865ZM98.9378 338.047L100.435 338.142L100.435 338.142L98.9378 338.047ZM97.0765 349.93L98.5501 350.21L98.5501 350.21L97.0765 349.93ZM92.8421 382.535L91.3422 382.515L91.332 383.27L91.9329 383.728L92.8421 382.535ZM93.4114 382.969L92.5072 384.166L92.5072 384.166L93.4114 382.969ZM97.636 386.073L96.7627 387.293L96.7627 387.293L97.636 386.073ZM111.531 395.238L110.759 396.525L110.759 396.525L111.531 395.238ZM128.188 403.604L127.66 405.009L127.66 405.009L128.188 403.604ZM141.579 405.716L141.927 407.175L141.927 407.175L141.579 405.716ZM147.573 401.248L148.651 402.291L148.651 402.291L147.573 401.248ZM156.509 390.13L157.73 391.001L157.73 391.001L156.509 390.13ZM177.916 356.109L179.211 356.866L179.211 356.866L177.916 356.109ZM199.147 318.919L197.844 318.176L197.844 318.176L199.147 318.919ZM214.828 293.115L216.04 294L216.04 294L214.828 293.115ZM214.873 293.054L216.085 293.938L216.087 293.935L214.873 293.054ZM215.063 292.793L214.188 291.574L213.992 291.715L213.849 291.911L215.063 292.793ZM215.326 292.604L214.452 291.385L214.451 291.386L215.326 292.604ZM215.391 292.558L216.265 293.777L216.266 293.776L215.391 292.558ZM240.618 283.574L240.581 282.075L240.581 282.075L240.618 283.574ZM255.663 287.198L256.409 285.896L256.409 285.896L255.663 287.198ZM257.227 288.168L256.395 289.416L258.552 287.466L257.227 288.168ZM238.76 264.569L239.74 263.434L239.74 263.434L238.76 264.569ZM166.073 246.772L165.9 245.282L165.9 245.282L166.073 246.772ZM203.519 171.234L204.694 170.303L204.657 170.255L204.615 170.211L203.519 171.234ZM140.677 142.071L140.444 140.589L140.444 140.589L140.677 142.071ZM95.6868 171.973L94.5139 171.038L93.8399 171.883L94.429 172.79L95.6868 171.973ZM112.945 188.416L112.228 189.734L112.228 189.734L112.945 188.416ZM165.727 197.587L165.761 199.087L165.761 199.087L165.727 197.587ZM233.855 236.18L235.029 235.246L235.029 235.246L233.855 236.18ZM251.128 262.169L249.819 262.902L249.845 262.948L249.874 262.992L251.128 262.169ZM259.208 276.537L257.856 277.185L260.665 276.179L259.208 276.537ZM82.846 191.29L84.0901 190.452L82.7201 188.418L81.5333 190.564L82.846 191.29ZM75.4222 206.854L74.0301 206.296L73.7801 206.919L74.0781 207.52L75.4222 206.854ZM85.014 219.65L83.9578 220.715L83.9578 220.716L85.014 219.65ZM165.496 241.807L165.669 243.297L165.669 243.297L165.496 241.807ZM242.027 260.782L243.007 259.647L243.007 259.647L242.027 260.782ZM247.571 266.063L246.485 267.098L248.885 265.341L247.571 266.063ZM246.851 264.765L248.16 264.033L248.134 263.985L248.103 263.939L246.851 264.765ZM216.372 235.199L217.137 233.909L217.137 233.909L216.372 235.199ZM166.153 223.897L165.941 222.412L165.84 222.427L165.741 222.455L166.153 223.897ZM166.146 223.899L166.38 225.381L166.47 225.367L166.558 225.342L166.146 223.899ZM166.072 223.911L166.187 225.407L166.246 225.402L166.306 225.393L166.072 223.911ZM165.995 223.917L165.88 222.421L165.871 222.422L165.862 222.423L165.995 223.917ZM92.4739 176.175L93.7164 175.334L92.5223 173.569L91.2635 175.289L92.4739 176.175ZM85.6712 186.403L84.3875 185.627L83.9247 186.393L84.3784 187.164L85.6712 186.403ZM165.512 218.938L165.645 220.433L165.683 220.429L165.721 220.424L165.512 218.938ZM218.92 230.897L219.685 229.607L219.685 229.607L218.92 230.897ZM228.297 237.259L227.381 238.447L229.456 236.306L228.297 237.259ZM165.842 202.585L165.808 201.085L165.808 201.085L165.842 202.585ZM110.555 192.808L109.838 194.125L109.838 194.125L110.555 192.808ZM73.722 213.846L74.9707 213.015L72.3644 209.099L72.2227 213.801L73.722 213.846ZM74.8558 223.973V225.473H77.1025L76.2412 223.398L74.8558 223.973ZM74.8548 223.973V222.473H72.6079L73.4694 224.548L74.8548 223.973ZM83.0159 234.342L82.0028 235.448L85.6562 238.794L84.4725 233.983L83.0159 234.342ZM80.8792 222.577L82.3673 222.388L82.3035 221.886L81.949 221.526L80.8792 222.577ZM142.116 7.30273L140.883 8.15784L141.456 8.98401L142.689 8.12891L143.921 7.2738L143.348 6.44763L142.116 7.30273ZM142.689 8.12891L141.456 8.98369C194.008 84.7644 254.323 169.307 280.101 247.31L281.526 246.839L282.95 246.368C257.003 167.856 196.367 82.9025 143.921 7.27413L142.689 8.12891ZM281.526 246.839L280.101 247.31C292.795 285.721 297.152 322.651 288.013 356.227L289.46 356.621L290.908 357.015C300.259 322.662 295.747 285.09 282.95 246.368L281.526 246.839ZM289.46 356.621L288.016 356.218L287.564 357.833L289.009 358.236L290.454 358.64L290.905 357.025L289.46 356.621ZM289.009 358.236L287.567 357.824C277.837 391.854 254.11 422.246 211.252 447.119L212.005 448.416L212.758 449.713C256.153 424.529 280.469 393.562 290.451 358.649L289.009 358.236ZM212.005 448.416L211.252 447.119L209.522 448.122L210.275 449.42L211.027 450.717L212.758 449.713L212.005 448.416ZM210.275 449.42L211.572 448.667L210.569 446.938L209.272 447.69L207.974 448.443L208.977 450.172L210.275 449.42ZM209.272 447.69L210.568 446.936L210.523 446.858L209.227 447.613L207.931 448.368L207.976 448.445L209.272 447.69ZM209.227 447.613L210.122 446.409L210.049 446.356L209.155 447.56L208.26 448.763L208.332 448.817L209.227 447.613ZM209.155 447.56L210.05 446.356L208.446 445.162L207.55 446.365L206.654 447.568L208.259 448.763L209.155 447.56ZM207.55 446.365L208.753 447.261L209.948 445.656L208.744 444.761L207.541 443.865L206.347 445.47L207.55 446.365ZM208.744 444.761L209.948 445.657C227.62 421.925 271.451 375.062 265.122 302.803L263.627 302.934L262.133 303.064C268.343 373.958 225.434 419.837 207.541 443.865L208.744 444.761ZM263.627 302.934L264.949 302.224C261.807 296.376 258 292.568 253.923 290.234L253.178 291.536L252.433 292.838C255.959 294.857 259.393 298.222 262.306 303.644L263.627 302.934ZM253.178 291.536H254.678V291.535H253.178H251.678V291.536H253.178ZM253.178 291.535L253.923 290.233C249.74 287.839 245.21 286.959 240.708 287.073L240.745 288.572L240.783 290.072C244.838 289.969 248.806 290.761 252.433 292.837L253.178 291.535ZM240.745 288.572L240.708 287.073C231.852 287.297 223.178 291.367 217.772 295.161L218.633 296.389L219.495 297.617C224.597 294.036 232.705 290.276 240.783 290.072L240.745 288.572ZM218.633 296.389L217.415 295.513C213.837 300.488 208.487 309.605 202.187 320.652L203.491 321.396L204.794 322.139C211.117 311.048 216.384 302.084 219.851 297.265L218.633 296.389ZM203.491 321.396L202.187 320.652C195.763 331.918 188.371 345.152 180.938 357.875L182.233 358.632L183.528 359.389C190.972 346.648 198.388 333.372 204.794 322.139L203.491 321.396ZM182.233 358.632L180.938 357.875C173.504 370.598 166.007 382.848 159.358 392.164L160.579 393.035L161.8 393.907C168.532 384.474 176.086 372.125 183.528 359.389L182.233 358.632ZM160.579 393.035L159.358 392.164C156.036 396.819 152.906 400.768 150.088 403.682L151.166 404.725L152.245 405.767C155.211 402.7 158.439 398.615 161.8 393.907L160.579 393.035ZM151.166 404.725L150.088 403.682C147.312 406.552 144.696 408.571 142.391 409.12L142.739 410.579L143.086 412.038C146.303 411.272 149.44 408.667 152.244 405.767L151.166 404.725ZM142.739 410.579V409.079H142.738V410.579V412.079H142.739V410.579ZM142.738 410.579L142.39 409.12C138.084 410.145 132.604 409.002 126.958 406.88L126.43 408.284L125.902 409.688C131.667 411.855 137.865 413.281 143.085 412.038L142.738 410.579ZM126.43 408.284L126.958 406.88C121.269 404.742 115.232 401.541 109.73 398.239L108.958 399.525L108.187 400.812C113.764 404.158 119.975 407.461 125.902 409.688L126.43 408.284ZM108.958 399.525L109.73 398.239C104.223 394.935 99.2216 391.513 95.5993 388.919L94.7259 390.139L93.8525 391.358C97.5176 393.983 102.589 397.453 108.187 400.812L108.958 399.525ZM94.7259 390.139L95.5993 388.919C93.7875 387.622 92.3172 386.529 91.301 385.761L90.3968 386.958L89.4926 388.155C90.5266 388.936 92.0175 390.044 93.8525 391.358L94.7259 390.139ZM90.3968 386.958L91.301 385.761C90.7934 385.378 90.397 385.074 90.128 384.866L89.2112 386.054L88.2945 387.241C88.5724 387.456 88.9773 387.766 89.4926 388.155L90.3968 386.958ZM89.2112 386.054L90.128 384.866C90.0256 384.787 89.9447 384.724 89.8736 384.669L88.9525 385.853L88.0313 387.036C88.0939 387.085 88.1863 387.157 88.2945 387.241L89.2112 386.054ZM88.9525 385.853L89.6233 384.511L89.6194 384.509L88.9485 385.851L88.2777 387.192L88.2816 387.194L88.9525 385.853ZM88.9485 385.851L89.8749 384.671L89.7431 384.567L88.8167 385.747L87.8904 386.927L88.0222 387.03L88.9485 385.851ZM88.8167 385.747L89.7929 384.608L89.7861 384.602L88.8099 385.741L87.8337 386.88L87.8405 386.886L88.8167 385.747ZM88.8099 385.741L89.7976 384.612L89.7898 384.606L88.8021 385.734L87.8143 386.863L87.8221 386.87L88.8099 385.741ZM88.8021 385.734L89.7166 384.545L89.7039 384.536L88.7894 385.725L87.8748 386.914L87.8875 386.923L88.8021 385.734ZM88.7894 385.725L89.7161 384.545L89.5247 384.395L88.598 385.574L87.6712 386.754L87.8626 386.904L88.7894 385.725ZM88.598 385.574L89.5245 384.395L88.7598 383.794L87.8333 384.974L86.9068 386.153L87.6714 386.754L88.598 385.574ZM87.8333 384.974H89.3333V383.759H87.8333H86.3333V384.974H87.8333ZM87.8333 383.759L89.3333 383.768L89.3401 382.598L87.8401 382.589L86.3402 382.58L86.3333 383.75L87.8333 383.759ZM87.8401 382.589L89.34 382.607C89.4883 370.664 91.8886 358.484 93.638 349.277L92.1644 348.997L90.6907 348.717C88.9521 357.868 86.4924 370.315 86.3403 382.57L87.8401 382.589ZM92.1644 348.997L93.638 349.277C94.4063 345.234 95.0362 341.817 95.3196 339.224L93.8284 339.061L92.3373 338.898C92.0693 341.35 91.4649 344.643 90.6907 348.717L92.1644 348.997ZM93.8284 339.061L92.6284 338.161L81.9877 352.35L83.1878 353.25L84.3879 354.15L95.0285 339.96L93.8284 339.061ZM83.1878 353.25H81.6878V353.251H83.1878H84.6878V353.25H83.1878ZM83.1878 353.251L81.9884 352.35L81.6525 352.797L82.8519 353.698L84.0512 354.599L84.3872 354.152L83.1878 353.251ZM82.8519 353.698L81.6527 352.797L80.309 354.585L81.5081 355.486L82.7073 356.387L84.051 354.599L82.8519 353.698ZM81.5081 355.486L82.5365 354.394L80.9086 352.861L79.8802 353.953L78.8518 355.045L80.4797 356.578L81.5081 355.486ZM79.8802 353.953L80.9089 352.861L80.5026 352.479L79.4739 353.57L78.4452 354.662L78.8515 355.045L79.8802 353.953ZM79.4739 353.57H80.9739V353.569H79.4739H77.9739V353.57H79.4739ZM79.4739 353.569L80.502 352.477L70.9551 343.492L69.9271 344.584L68.899 345.676L78.4459 354.662L79.4739 353.569ZM69.9271 344.584L68.441 344.38C61.9367 391.703 99.7911 430.608 148.779 453.692L149.418 452.335L150.058 450.978C101.376 428.039 65.1913 390.055 71.4131 344.788L69.9271 344.584ZM149.418 452.335L149.49 453.833C153.704 453.632 158.633 451.852 164.375 448.21L163.572 446.943L162.768 445.677C157.27 449.164 152.85 450.669 149.347 450.837L149.418 452.335ZM163.572 446.943L164.389 448.201L165.501 447.479L164.684 446.221L163.867 444.963L162.754 445.686L163.572 446.943ZM164.684 446.221L165.514 447.47C171.244 443.662 177.703 438.09 184.962 430.582L183.883 429.539L182.805 428.497C175.636 435.912 169.344 441.323 163.854 444.971L164.684 446.221ZM183.883 429.539L184.962 430.582C200.444 414.566 219.458 389.854 242.69 355.006L241.442 354.174L240.194 353.342C216.998 388.135 198.101 412.673 182.805 428.497L183.883 429.539ZM241.442 354.174L242.69 355.006L243.799 353.342L242.551 352.51L241.303 351.678L240.194 353.342L241.442 354.174ZM242.551 352.51L241.719 353.758L245.879 356.531L246.711 355.283L247.543 354.035L243.383 351.262L242.551 352.51ZM246.711 355.283L245.463 354.451L244.354 356.115L245.602 356.947L246.85 357.779L247.959 356.115L246.711 355.283ZM245.602 356.947L244.354 356.115C221.097 391 202.004 415.827 186.398 431.97L187.477 433.013L188.555 434.055C204.347 417.72 223.557 392.719 246.85 357.779L245.602 356.947ZM187.477 433.013L186.398 431.97C178.596 440.042 171.639 445.97 165.446 449.898L166.249 451.165L167.053 452.432C173.518 448.33 180.66 442.223 188.555 434.055L187.477 433.013ZM166.249 451.165L165.446 449.898C159.26 453.822 153.765 455.796 148.905 455.854L148.923 457.354L148.941 458.853C154.571 458.787 160.616 456.514 167.053 452.432L166.249 451.165ZM148.923 457.354V455.854H148.891V457.354V458.854H148.923V457.354ZM148.891 457.354L148.893 455.854C148.225 455.853 147.578 455.8 146.955 455.695L146.707 457.175L146.46 458.654C147.253 458.787 148.065 458.852 148.889 458.854L148.891 457.354ZM146.707 457.175L146.46 455.695C130 458.442 107.199 453.539 84.7038 441.764L84.0081 443.093L83.3125 444.422C106.139 456.371 129.62 461.547 146.954 458.654L146.707 457.175ZM84.0081 443.093L84.7038 441.764C61.9762 429.867 39.4292 410.892 23.8799 385.443L22.5999 386.226L21.3199 387.008C37.1897 412.98 60.1708 432.308 83.3125 444.422L84.0081 443.093ZM22.5999 386.226L23.8799 385.444C8.32225 359.981 -0.216112 328.058 5.06395 290.329L3.57843 290.121L2.09291 289.913C-3.28769 328.36 5.41676 360.98 21.3199 387.008L22.5999 386.226ZM3.57843 290.121L5.06395 290.329C10.3369 252.653 29.3796 209.249 68.8552 160.739L67.6917 159.792L66.5283 158.845C26.8061 207.659 7.46085 251.558 2.09291 289.913L3.57843 290.121ZM67.6917 159.792L68.9858 160.551L107.679 94.5457L106.385 93.7871L105.091 93.0285L66.3977 159.033L67.6917 159.792ZM106.385 93.7871L107.765 94.3749L125.193 53.4579L123.813 52.8701L122.433 52.2823L105.005 93.1993L106.385 93.7871ZM123.813 52.8701L125.238 53.3371L139.684 9.24237L138.258 8.77539L136.833 8.30841L122.387 52.4031L123.813 52.8701ZM138.258 8.77539L139.683 9.24274L139.997 8.28668L138.572 7.81934L137.146 7.35199L136.833 8.30804L138.258 8.77539ZM138.572 7.81934L139.997 8.28656L141.249 4.46723L139.824 4L138.398 3.53277L137.146 7.35211L138.572 7.81934ZM139.824 4L138.591 4.8552L140.883 8.15793L142.116 7.30273L143.348 6.44754L141.056 3.1448L139.824 4ZM128.53 54.5361L127.093 54.1051L127.09 54.1149L128.527 54.5459L129.963 54.9769L129.966 54.9672L128.53 54.5361ZM128.527 54.5459L127.104 54.0716L127.097 54.0921L128.52 54.5664L129.943 55.0407L129.95 55.0202L128.527 54.5459ZM128.52 54.5664L127.098 54.0877L127.066 54.1834L128.488 54.6621L129.909 55.1408L129.941 55.0451L128.52 54.5664ZM128.488 54.6621L127.118 54.0502L127.077 54.142L128.447 54.7539L129.816 55.3658L129.857 55.274L128.488 54.6621ZM128.447 54.7539L127.079 54.1384L127.07 54.1579L128.438 54.7734L129.806 55.389L129.814 55.3695L128.447 54.7539ZM128.438 54.7734L127.058 54.1857L109.545 95.3048L110.925 95.8926L112.305 96.4803L129.818 55.3612L128.438 54.7734ZM110.925 95.8926L109.56 95.2719L109.555 95.2826L110.92 95.9033L112.286 96.524L112.291 96.5133L110.925 95.8926ZM110.92 95.9033L109.544 95.3069L109.531 95.3362L110.908 95.9326L112.284 96.529L112.297 96.4997L110.92 95.9033ZM110.908 95.9326L109.532 95.3353L109.477 95.4613L110.853 96.0586L112.229 96.6559L112.283 96.5299L110.908 95.9326ZM110.853 96.0586L109.567 95.2869L109.496 95.404L110.783 96.1758L112.069 96.9475L112.139 96.8303L110.853 96.0586ZM110.783 96.1758L109.5 95.3973L109.484 95.4247L110.766 96.2031L112.048 96.9816L112.065 96.9542L110.783 96.1758ZM110.766 96.2031L109.472 95.4446L70.6193 161.724L71.9134 162.482L73.2074 163.241L112.06 96.9617L110.766 96.2031ZM71.9134 162.482L70.8527 161.422L70.8508 161.424L71.9114 162.484L72.9721 163.545L72.9741 163.543L71.9134 162.482ZM71.9114 162.484L70.6185 161.724L70.599 161.757L71.8919 162.518L73.1848 163.278L73.2043 163.245L71.9114 162.484ZM71.8919 162.518L70.5979 161.759L70.5149 161.901L71.8089 162.659L73.1029 163.418L73.186 163.276L71.8919 162.518ZM71.8089 162.659L70.658 161.697L70.5536 161.822L71.7044 162.784L72.8553 163.746L72.9598 163.621L71.8089 162.659ZM71.7044 162.784L70.5521 161.824L70.5277 161.853L71.68 162.813L72.8323 163.774L72.8567 163.744L71.7044 162.784ZM71.68 162.813L70.5169 161.866C31.1308 210.229 12.2585 253.348 7.04408 290.607L8.5296 290.814L10.0151 291.022C15.1345 254.443 33.7037 211.821 72.8431 163.761L71.68 162.813ZM8.5296 290.814L7.04408 290.607C1.83112 327.856 10.2593 359.315 25.5865 384.4L26.8665 383.618L28.1465 382.836C13.1648 358.316 4.9027 327.554 10.0151 291.022L8.5296 290.814ZM26.8665 383.618L25.5865 384.4C40.9223 409.499 63.1801 428.24 85.6318 439.993L86.3275 438.664L87.0231 437.335C64.9856 425.799 43.1618 407.411 28.1465 382.836L26.8665 383.618ZM86.3275 438.664L85.6318 439.993C104.921 450.09 124.229 454.964 139.344 454.392L139.287 452.894L139.231 451.395C124.776 451.941 105.989 447.263 87.0231 437.335L86.3275 438.664ZM139.287 452.894L139.979 451.563C93.4395 427.36 58.346 388.159 67.0268 340.546L65.5511 340.277L64.0754 340.008C55.0262 389.641 91.7113 429.842 138.595 454.224L139.287 452.894ZM65.5511 340.277L67.025 340.556L67.2388 339.425L65.765 339.146L64.2911 338.868L64.0772 339.999L65.5511 340.277ZM65.765 339.146L67.2621 339.239C67.2638 339.211 67.2671 339.154 67.2694 339.064L65.7698 339.026L64.2703 338.989C64.2697 339.013 64.2691 339.029 64.2686 339.038C64.2683 339.047 64.268 339.051 64.2678 339.054L65.765 339.146ZM65.7698 339.026L67.2694 339.064C67.2733 338.908 67.2723 338.707 67.2642 338.455L65.765 338.503L64.2657 338.551C64.2726 338.763 64.2724 338.905 64.2703 338.989L65.7698 339.026ZM65.765 338.503L67.2642 338.455C67.2484 337.964 67.2104 337.342 67.16 336.594L65.6634 336.695L64.1668 336.796C64.2173 337.545 64.2518 338.119 64.2657 338.551L65.765 338.503ZM65.6634 336.695L67.16 336.594C67.06 335.109 66.9146 333.165 66.8223 330.94L65.3235 331.002L63.8248 331.064C63.9192 333.339 64.0683 335.335 64.1668 336.796L65.6634 336.695ZM65.3235 331.002L66.8223 330.94C66.6377 326.491 66.6617 320.856 67.6875 315.273L66.2122 315.002L64.7369 314.731C63.6527 320.632 63.6363 326.52 63.8248 331.064L65.3235 331.002ZM66.2122 315.002L67.6875 315.273C68.7124 309.695 70.7515 304.087 74.657 299.767L73.5443 298.761L72.4315 297.755C68.014 302.642 65.8171 308.852 64.7369 314.731L66.2122 315.002ZM73.5443 298.761L74.657 299.767C78.5879 295.418 84.3319 292.459 92.5727 292.067L92.5013 290.568L92.4299 289.07C83.4734 289.497 76.9504 292.756 72.4315 297.755L73.5443 298.761ZM92.5013 290.568L92.5726 292.067C100.663 291.681 106.784 292.59 111.461 294.6L112.053 293.222L112.645 291.844C107.405 289.592 100.785 288.672 92.4299 289.07L92.5013 290.568ZM112.053 293.222L111.461 294.6C116.163 296.621 119.347 299.73 121.59 303.618L122.889 302.868L124.188 302.119C121.648 297.716 117.989 294.14 112.645 291.844L112.053 293.222ZM122.889 302.868L121.59 303.618C123.816 307.477 125.104 312.085 126.076 317.097L127.548 316.812L129.021 316.526C128.029 311.407 126.665 306.412 124.188 302.119L122.889 302.868ZM127.548 316.812L126.076 317.097C127.041 322.078 127.724 327.652 128.664 333.294L130.144 333.048L131.623 332.801C130.719 327.373 129.989 321.522 129.021 316.526L127.548 316.812ZM130.144 333.048L128.664 333.294C129.453 338.026 128.954 341.913 127.556 345.069L128.928 345.677L130.3 346.284C131.973 342.505 132.491 338.009 131.623 332.801L130.144 333.048ZM128.928 345.677L127.557 345.069C126.159 348.224 123.895 350.578 121.271 352.3L122.094 353.554L122.917 354.808C125.933 352.829 128.628 350.058 130.3 346.284L128.928 345.677ZM122.094 353.554L121.271 352.3C118.633 354.03 115.606 355.137 112.648 355.789L112.971 357.254L113.294 358.719C116.51 358.009 119.9 356.787 122.917 354.808L122.094 353.554ZM112.971 357.254L112.239 358.563L128.079 367.416L128.811 366.106L129.543 364.797L113.703 355.945L112.971 357.254ZM128.811 366.106L130.293 366.338L133.55 345.498L132.068 345.267L130.586 345.035L127.329 365.875L128.811 366.106ZM132.068 345.267H133.568V345.263H132.068H130.568V345.267H132.068ZM132.068 345.263L133.549 345.497L133.586 345.263L132.105 345.028L130.623 344.794L130.586 345.028L132.068 345.263ZM132.105 345.028L133.586 345.264L133.735 344.329L132.253 344.094L130.772 343.858L130.623 344.793L132.105 345.028ZM132.253 344.094L133.012 345.388L133.828 344.909L133.07 343.615L132.311 342.321L131.495 342.8L132.253 344.094ZM133.07 343.615L133.828 344.91L134.033 344.789L133.275 343.495L132.517 342.201L132.312 342.321L133.07 343.615ZM133.275 343.495L134.107 344.743L134.11 344.741L133.278 343.493L132.446 342.245L132.443 342.247L133.275 343.495ZM133.278 343.493L134.033 344.789C140.886 340.791 145.349 338.799 148.065 338.287L147.787 336.812L147.509 335.338C144.227 335.957 139.36 338.209 132.522 342.197L133.278 343.493ZM147.787 336.812L148.065 338.287C149.295 338.055 150.46 338.071 151.275 338.66L152.153 337.443L153.031 336.227C151.158 334.875 148.904 335.076 147.51 335.338L147.787 336.812ZM152.153 337.443L151.224 338.621L151.487 338.829L152.416 337.651L153.345 336.474L153.082 336.266L152.153 337.443ZM152.416 337.651H150.916V337.652H152.416H153.916V337.651H152.416ZM152.416 337.652L151.435 338.787C151.466 338.813 151.492 338.837 151.515 338.859L152.544 337.768L153.573 336.676C153.514 336.62 153.455 336.567 153.397 336.518L152.416 337.652ZM152.544 337.768L153.4 339L153.779 338.736L152.924 337.504L152.069 336.272L151.689 336.535L152.544 337.768ZM152.924 337.504L153.781 338.735C162.552 332.634 175.719 322.831 182.932 310.842L181.647 310.068L180.361 309.295C173.517 320.672 160.861 330.155 152.068 336.273L152.924 337.504ZM181.647 310.068L182.932 310.842C186.526 304.868 188.604 298.411 187.974 291.634L186.481 291.772L184.987 291.911C185.541 297.872 183.732 303.692 180.361 309.295L181.647 310.068ZM186.481 291.772L187.974 291.634C187.431 285.783 184.856 279.586 179.316 273.166L178.18 274.146L177.044 275.125C182.248 281.156 184.511 286.783 184.987 291.911L186.481 291.772ZM178.18 274.146L176.799 273.56C174.891 278.058 171.908 282.781 168.542 286.671L169.676 287.652L170.81 288.634C174.368 284.523 177.522 279.536 179.561 274.731L178.18 274.146ZM169.676 287.652L168.542 286.671C166.357 289.195 163.979 291.406 161.585 292.994L162.414 294.244L163.243 295.494C165.924 293.716 168.502 291.302 170.81 288.634L169.676 287.652ZM162.414 294.244L161.585 292.994C159.356 294.472 157.033 295.461 154.795 295.578L154.873 297.076L154.952 298.574C157.929 298.419 160.775 297.131 163.243 295.494L162.414 294.244ZM154.873 297.076L154.834 295.577L154.313 295.59L154.352 297.09L154.391 298.589L154.913 298.576L154.873 297.076ZM154.352 297.09L154.352 295.59C152.622 295.59 150.45 294.874 148.157 293.805L147.524 295.165L146.89 296.525C149.269 297.633 151.937 298.59 154.352 298.59L154.352 297.09ZM147.524 295.165L148.157 293.805C145.832 292.722 143.26 291.217 140.689 289.517L139.862 290.769L139.035 292.02C141.681 293.769 144.387 295.358 146.89 296.525L147.524 295.165ZM139.862 290.769L140.689 289.517C136.113 286.493 131.469 282.8 128.132 279.653L127.103 280.744L126.074 281.835C129.543 285.108 134.324 288.906 139.034 292.02L139.862 290.769ZM127.103 280.744L126.546 279.351L116.617 283.324L117.174 284.717L117.731 286.109L127.66 282.137L127.103 280.744ZM117.174 284.717L116.617 283.324L115.931 283.599L116.489 284.991L117.046 286.384L117.732 286.109L117.174 284.717ZM116.489 284.991L115.931 283.599L113.188 284.697L113.745 286.09L114.303 287.482L117.046 286.384L116.489 284.991ZM113.745 286.09H115.245V282.343H113.745H112.245V286.09H113.745ZM113.745 282.343L115.245 282.337C115.245 282.295 115.245 282.236 115.244 282.159L113.744 282.171L112.244 282.183C112.245 282.253 112.245 282.307 112.245 282.349L113.745 282.343ZM113.744 282.171L115.244 282.159C115.243 281.999 115.241 281.765 115.235 281.468L113.736 281.494L112.236 281.52C112.241 281.807 112.243 282.032 112.244 282.183L113.744 282.171ZM113.736 281.494L115.235 281.468C115.225 280.872 115.205 280.013 115.163 278.972L113.664 279.031L112.166 279.091C112.206 280.107 112.226 280.943 112.236 281.52L113.736 281.494ZM113.664 279.031L115.163 278.972C115.08 276.888 114.915 274.08 114.585 271.176L113.095 271.345L111.605 271.514C111.923 274.322 112.085 277.052 112.166 279.091L113.664 279.031ZM113.095 271.345L114.585 271.176C114.255 268.264 113.763 265.29 113.037 262.859L111.6 263.288L110.163 263.717C110.815 265.902 111.282 268.676 111.605 271.514L113.095 271.345ZM111.6 263.288L113.037 262.859C112.719 261.792 112.363 260.857 111.972 260.089L110.635 260.77L109.298 261.45C109.583 262.01 109.878 262.764 110.163 263.717L111.6 263.288ZM110.635 260.77L111.959 260.065L111.814 259.791L110.49 260.496L109.165 261.201L109.311 261.474L110.635 260.77ZM110.49 260.496L111.799 259.765C111.385 259.023 110.967 258.527 110.571 258.226L109.662 259.419L108.754 260.612C108.719 260.586 108.892 260.711 109.18 261.228L110.49 260.496ZM109.662 259.419L110.518 258.187L110.448 258.138L109.592 259.37L108.737 260.602L108.807 260.651L109.662 259.419ZM109.592 259.37L110.383 258.096C101.999 252.892 95.3541 248.445 90.0912 244.568L89.2015 245.775L88.3118 246.983C93.6587 250.922 100.375 255.414 108.801 260.645L109.592 259.37ZM89.2015 245.775L89.7134 244.365C89.2349 244.192 88.8139 243.888 88.4502 243.525L87.3909 244.587L86.3317 245.649C86.9094 246.225 87.6892 246.822 88.6895 247.185L89.2015 245.775ZM87.3909 244.587L88.4755 243.551L88.245 243.309L87.1605 244.346L86.0759 245.382L86.3064 245.623L87.3909 244.587ZM87.1605 244.346L88.2723 243.339C88.2098 243.27 88.1462 243.195 88.0793 243.113L86.9173 244.062L85.7553 245.01C85.8441 245.119 85.9421 245.235 86.0487 245.353L87.1605 244.346ZM86.9173 244.062L87.828 242.87C78.1148 235.449 73.6167 230.114 71.624 225.314L70.2386 225.889L68.8532 226.464C71.1555 232.01 76.1729 237.74 86.0066 245.253L86.9173 244.062ZM70.2386 225.889V224.389H70.2376V225.889V227.389H70.2386V225.889ZM70.2376 225.889L71.623 225.314C69.5122 220.228 70.2805 215.777 70.2806 210.756L68.7806 210.756L67.2806 210.756C67.2805 215.23 66.44 220.652 68.8522 226.464L70.2376 225.889ZM68.7806 210.756H70.2806V210.332H68.7806H67.2806V210.756H68.7806ZM68.7806 210.332L70.1966 210.827L70.3089 210.506L68.8929 210.011L67.4769 209.516L67.3646 209.837L68.7806 210.332ZM68.8929 210.011L70.3089 210.506L70.3373 210.424L68.9212 209.93L67.5052 209.435L67.4768 209.516L68.8929 210.011ZM68.9212 209.93L70.3764 210.293L70.3774 210.29L68.9222 209.926L67.467 209.562L67.466 209.566L68.9212 209.93ZM68.9222 209.926L70.3371 210.424C70.7784 209.169 71.2547 207.886 71.7654 206.581L70.3685 206.034L68.9715 205.488C68.4485 206.825 67.9601 208.141 67.5072 209.428L68.9222 209.926ZM70.3685 206.034L71.7654 206.581C74.3185 200.053 77.7304 192.944 81.9176 185.859L80.6263 185.096L79.3349 184.333C75.0662 191.556 71.5835 198.81 68.9715 205.488L70.3685 206.034ZM80.6263 185.096L81.9176 185.859C84.8484 180.9 88.1616 175.947 91.8298 171.211L90.6439 170.293L89.458 169.374C85.7064 174.218 82.3237 179.275 79.3349 184.333L80.6263 185.096ZM90.6439 170.293L91.8297 171.211C104.169 155.28 120.618 141.678 140.133 138.614L139.901 137.132L139.668 135.65C119.071 138.884 102.015 153.162 89.458 169.374L90.6439 170.293ZM139.901 137.132L140.133 138.614C159.717 135.54 182.094 143.118 206.145 168.918L207.242 167.896L208.34 166.873C183.849 140.601 160.538 132.374 139.668 135.65L139.901 137.132ZM207.242 167.896L206.146 168.919L206.16 168.934L207.256 167.91L208.353 166.887L208.339 166.872L207.242 167.896ZM207.256 167.91L206.164 168.938L206.211 168.988L207.303 167.96L208.395 166.932L208.348 166.882L207.256 167.91ZM207.303 167.96L206.132 168.897L206.175 168.951L207.346 168.014L208.517 167.077L208.474 167.023L207.303 167.96ZM207.346 168.014L206.182 168.96L206.195 168.975L207.359 168.029L208.523 167.083L208.51 167.068L207.346 168.014ZM207.359 168.029L206.238 169.026L206.245 169.035L207.367 168.038L208.488 167.042L208.48 167.033L207.359 168.029ZM207.367 168.038L206.195 168.975L206.203 168.985L207.374 168.048L208.546 167.111L208.538 167.101L207.367 168.038ZM207.374 168.048L206.199 168.98C246.815 220.203 263.662 264.497 267.073 302.121L268.567 301.985L270.061 301.85C266.585 263.517 249.44 218.685 208.55 167.116L207.374 168.048ZM268.567 301.985L267.073 302.121C272.83 365.63 240.245 409.901 219.968 435.952L221.152 436.873L222.335 437.794C242.663 411.679 275.93 366.595 270.061 301.85L268.567 301.985ZM221.152 436.873L221.978 438.125C257.11 414.916 277.004 387.495 285.645 357.275L284.202 356.862L282.76 356.45C274.344 385.885 254.95 412.748 220.325 435.621L221.152 436.873ZM284.202 356.862L285.647 357.266L286.081 355.713L284.636 355.31L283.191 354.906L282.758 356.459L284.202 356.862ZM284.636 355.31L286.083 355.704C295.082 322.645 290.827 286.142 278.201 247.938L276.777 248.408L275.352 248.879C287.875 286.773 291.976 322.634 283.189 354.916L284.636 355.31ZM276.777 248.408L278.201 247.938C252.999 171.678 194.598 89.05 142.678 14.2501L141.446 15.1055L140.213 15.9608C192.229 90.8994 250.318 173.126 275.352 248.879L276.777 248.408ZM141.446 15.1055L140.02 14.6385L127.104 54.0692L128.53 54.5361L129.955 55.0031L142.871 15.5724L141.446 15.1055ZM86.765 227.925L85.2894 228.194C85.6814 230.34 86.1543 232.572 86.7018 234.636L88.1517 234.251L89.6015 233.866C89.0799 231.9 88.6231 229.749 88.2405 227.655L86.765 227.925ZM88.1517 234.251L86.7018 234.636C87.2992 236.887 87.9715 238.887 88.6969 240.342L90.0394 239.673L91.3819 239.004C90.79 237.816 90.1792 236.043 89.6015 233.866L88.1517 234.251ZM90.0394 239.673L88.6969 240.342C88.8834 240.716 89.0692 241.045 89.2517 241.326L90.5101 240.51L91.7685 239.693C91.6586 239.524 91.5279 239.297 91.3818 239.004L90.0394 239.673ZM90.5101 240.51L89.6042 241.705C90.0329 242.03 90.4748 242.364 90.9289 242.701L91.8216 241.495L92.7143 240.29C92.2747 239.964 91.8442 239.639 91.4159 239.314L90.5101 240.51ZM91.8216 241.495L90.9289 242.701C96.1884 246.596 102.894 251.094 111.438 256.397L112.229 255.122L113.02 253.848C104.519 248.571 97.8869 244.121 92.7143 240.29L91.8216 241.495ZM112.229 255.122L111.407 256.377L111.622 256.518L112.444 255.263L113.265 254.008L113.05 253.867L112.229 255.122ZM112.444 255.263L111.597 256.501C112.391 257.044 113.028 257.862 113.545 258.789L114.855 258.058L116.164 257.326C115.522 256.176 114.608 254.926 113.29 254.025L112.444 255.263ZM114.855 258.058L113.532 258.764L113.762 259.196L115.085 258.489L116.408 257.783L116.178 257.351L114.855 258.058ZM115.085 258.489L113.749 259.171C114.219 260.091 114.614 261.153 114.953 262.287L116.39 261.857L117.827 261.428C117.456 260.185 116.999 258.94 116.421 257.807L115.085 258.489ZM116.39 261.857L114.953 262.286C115.727 264.881 116.236 267.989 116.572 270.949L118.063 270.78L119.553 270.611C119.209 267.576 118.675 264.269 117.827 261.428L116.39 261.857ZM118.063 270.78L116.572 270.949C116.904 273.874 117.072 276.693 117.157 278.799L118.656 278.738L120.154 278.678C120.067 276.527 119.896 273.631 119.553 270.611L118.063 270.78ZM118.656 278.738L119.212 280.131L127.307 276.895L126.75 275.502L126.193 274.109L118.099 277.345L118.656 278.738ZM126.75 275.502L127.311 276.893L127.611 276.772L127.051 275.381L126.491 273.989L126.19 274.11L126.75 275.502ZM127.051 275.381L127.611 276.773L128.837 276.279L128.278 274.888L127.718 273.496L126.492 273.989L127.051 275.381ZM128.278 274.888L127.217 275.948L128.385 277.116L129.446 276.056L130.506 274.995L129.338 273.827L128.278 274.888ZM129.446 276.056L128.385 277.116C131.633 280.364 136.746 284.514 141.79 287.849L142.617 286.598L143.445 285.346C138.541 282.105 133.59 278.079 130.506 274.995L129.446 276.056ZM142.617 286.598V288.098H142.618V286.598V285.098H142.617V286.598ZM142.618 286.598L141.791 287.849C144.312 289.515 146.796 290.965 149.003 291.993L149.636 290.634L150.27 289.274C148.241 288.329 145.891 286.963 143.446 285.346L142.618 286.598ZM149.636 290.634L149.003 291.993C151.239 293.035 153.079 293.589 154.351 293.59L154.352 292.09L154.352 290.59C153.766 290.59 152.424 290.278 150.269 289.274L149.636 290.634ZM154.352 292.09L154.395 293.589L154.664 293.581L154.62 292.082L154.577 290.583L154.308 290.59L154.352 292.09ZM154.62 292.082L154.702 293.58C156.433 293.486 158.398 292.708 160.48 291.327L159.651 290.077L158.822 288.827C156.984 290.046 155.538 290.53 154.539 290.584L154.62 292.082ZM159.651 290.077L160.48 291.327C162.682 289.867 164.926 287.791 167.028 285.361L165.894 284.38L164.76 283.398C162.781 285.685 160.737 287.557 158.822 288.827L159.651 290.077ZM165.894 284.38L167.028 285.361C171.241 280.493 174.779 274.331 176.255 269.165L174.813 268.753L173.371 268.341C172.039 273.002 168.751 278.786 164.76 283.398L165.894 284.38ZM174.813 268.753L176.255 269.165L176.488 268.349L175.046 267.937L173.604 267.524L173.371 268.341L174.813 268.753ZM175.046 267.937L176.489 268.348L177.422 265.079L175.98 264.667L174.537 264.255L173.604 267.525L175.046 267.937ZM175.98 264.667L174.919 265.727L177.322 268.132L178.383 267.071L179.444 266.011L177.041 263.607L175.98 264.667ZM178.383 267.071L177.322 268.132L177.923 268.733L178.984 267.672L180.044 266.611L179.444 266.011L178.383 267.071ZM178.984 267.672L177.923 268.733C185.67 276.48 189.284 284.118 189.965 291.449L191.458 291.311L192.952 291.172C192.192 282.994 188.168 274.735 180.044 266.611L178.984 267.672ZM191.458 291.311L189.965 291.449C190.645 298.771 188.388 305.652 184.647 311.872L185.932 312.646L187.217 313.419C191.181 306.829 193.708 299.31 192.952 291.172L191.458 291.311ZM185.932 312.646L184.647 311.872C177.188 324.27 163.681 334.284 154.924 340.376L155.781 341.607L156.637 342.839C165.373 336.762 179.391 326.429 187.217 313.419L185.932 312.646ZM155.781 341.607L154.924 340.376L153.284 341.517L154.141 342.748L154.998 343.979L156.637 342.839L155.781 341.607ZM154.141 342.748L155.371 341.89L154.837 341.124L153.607 341.982L152.377 342.841L152.911 343.606L154.141 342.748ZM153.607 341.982L152.137 341.683C151.934 342.678 151.447 343.818 150.825 344.99L152.15 345.693L153.475 346.397C154.145 345.133 154.789 343.695 155.077 342.282L153.607 341.982ZM152.15 345.693L150.825 344.99C150.189 346.189 149.379 347.484 148.495 348.787L149.737 349.629L150.978 350.471C151.896 349.117 152.77 347.724 153.475 346.397L152.15 345.693ZM149.737 349.629L148.495 348.787C146.919 351.111 145.073 353.501 143.493 355.485L144.666 356.42L145.84 357.354C147.435 355.352 149.337 352.89 150.978 350.471L149.737 349.629ZM144.666 356.42L143.166 356.437C143.205 359.887 143.465 363.221 143.751 366.379L145.244 366.244L146.738 366.109C146.455 362.97 146.204 359.731 146.166 356.403L144.666 356.42ZM145.244 366.244L143.751 366.379C144.058 369.785 144.395 373.019 144.491 375.914L145.991 375.864L147.49 375.814C147.39 372.809 147.04 369.446 146.738 366.109L145.244 366.244ZM145.991 375.864L144.491 375.914C144.682 381.634 143.965 386.585 139.625 389.189L140.397 390.476L141.169 391.762C147.103 388.201 147.68 381.532 147.49 375.814L145.991 375.864ZM140.397 390.476L139.625 389.189C137.465 390.485 134.618 390.828 131.57 390.603L131.459 392.099L131.349 393.595C134.671 393.84 138.244 393.517 141.169 391.762L140.397 390.476ZM131.459 392.099L131.57 390.603C128.502 390.376 125.104 389.566 121.736 388.422L121.253 389.842L120.771 391.262C124.289 392.457 127.947 393.343 131.349 393.595L131.459 392.099ZM121.253 389.842L121.736 388.422C115.009 386.136 108.231 382.464 104.186 379.202L103.244 380.37L102.303 381.538C106.67 385.059 113.774 388.885 120.771 391.262L121.253 389.842ZM103.244 380.37L104.186 379.203L102.631 377.949L101.69 379.116L100.748 380.284L102.303 381.538L103.244 380.37ZM101.69 379.116L102.859 380.056L104.111 378.5L102.942 377.56L101.773 376.619L100.521 378.176L101.69 379.116ZM102.942 377.56L104.11 378.5L104.424 378.11L103.255 377.17L102.086 376.23L101.773 376.619L102.942 377.56ZM103.255 377.17L104.316 378.231L104.32 378.227L103.259 377.166L102.198 376.105L102.195 376.109L103.255 377.17ZM103.259 377.166L104.425 378.109L104.74 377.721L103.574 376.777L102.407 375.834L102.093 376.223L103.259 377.166ZM103.574 376.777L104.74 377.721L105.996 376.168L104.829 375.225L103.663 374.281L102.407 375.834L103.574 376.777ZM104.829 375.225L103.888 376.392L105.442 377.646L106.384 376.479L107.326 375.311L105.771 374.057L104.829 375.225ZM106.384 376.479L105.443 377.646C109.273 380.735 115.833 384.304 122.379 386.528L122.862 385.107L123.344 383.687C117.068 381.555 110.834 378.14 107.326 375.311L106.384 376.479ZM122.862 385.107L122.379 386.528C125.647 387.638 128.872 388.399 131.718 388.609L131.828 387.113L131.939 385.617C129.427 385.432 126.462 384.746 123.344 383.687L122.862 385.107ZM131.828 387.113L131.718 388.609C134.584 388.821 136.945 388.464 138.595 387.475L137.824 386.188L137.052 384.902C136.166 385.434 134.529 385.808 131.939 385.617L131.828 387.113ZM137.824 386.188L138.595 387.475C141.873 385.508 142.683 381.698 142.493 375.98L140.993 376.03L139.494 376.08C139.684 381.783 138.742 383.888 137.052 384.902L137.824 386.188ZM140.993 376.03L142.493 375.98C142.399 373.16 142.07 370.011 141.758 366.558L140.264 366.693L138.77 366.828C139.088 370.351 139.404 373.371 139.494 376.08L140.993 376.03ZM140.264 366.693L141.758 366.559C141.448 363.123 141.159 359.418 141.159 355.561L139.659 355.561L138.159 355.561C138.159 359.559 138.458 363.375 138.77 366.828L140.264 366.693ZM139.659 355.561H141.159V354.683H139.659H138.159V355.561H139.659ZM139.659 354.683L140.829 355.62L141.269 355.071L140.098 354.134L138.927 353.196L138.488 353.745L139.659 354.683ZM140.098 354.134L141.268 355.072L141.379 354.934L140.208 353.996L139.038 353.058L138.927 353.196L140.098 354.134ZM140.208 353.996L141.55 354.667L141.551 354.665L140.209 353.994L138.868 353.323L138.867 353.325L140.208 353.996ZM140.209 353.994L141.379 354.934C143.058 352.844 145.118 350.201 146.839 347.663L145.598 346.821L144.357 345.979C142.704 348.415 140.705 350.982 139.04 353.055L140.209 353.994ZM145.598 346.821L146.839 347.663C147.7 346.395 148.468 345.165 149.058 344.053L147.733 343.35L146.408 342.646C145.887 343.628 145.183 344.761 144.357 345.979L145.598 346.821ZM147.733 343.35L149.058 344.053C149.408 343.394 149.672 342.814 149.862 342.317L148.461 341.781L147.06 341.245C146.922 341.606 146.712 342.073 146.408 342.646L147.733 343.35ZM148.461 341.781L148.135 340.317C145.886 340.818 142.072 342.479 136.075 345.92L136.822 347.221L137.568 348.522C143.551 345.089 147.021 343.639 148.787 343.245L148.461 341.781ZM136.822 347.221L135.34 346.989L131.715 370.195L133.197 370.427L134.679 370.658L138.304 347.452L136.822 347.221ZM133.197 370.427H131.697V370.428H133.197H134.697V370.427H133.197ZM133.197 370.428L131.715 370.195L131.603 370.905L133.085 371.138L134.567 371.37L134.678 370.66L133.197 370.428ZM133.085 371.138L131.603 370.906L131.159 373.744L132.641 373.976L134.123 374.208L134.567 371.37L133.085 371.138ZM132.641 373.976L133.373 372.666L130.865 371.265L130.133 372.574L129.401 373.884L131.909 375.285L132.641 373.976ZM130.133 372.574L130.865 371.265L130.238 370.914L129.506 372.224L128.774 373.533L129.401 373.883L130.133 372.574ZM129.506 372.224H131.006V372.223H129.506H128.006V372.224H129.506ZM129.506 372.223L130.238 370.913L104.327 356.434L103.595 357.743L102.863 359.053L128.774 373.532L129.506 372.223ZM103.595 357.743L104.326 356.434L102.957 355.669L102.226 356.979L101.494 358.288L102.864 359.053L103.595 357.743ZM102.226 356.979L103.673 357.375L103.945 356.381L102.498 355.984L101.052 355.588L100.779 356.582L102.226 356.979ZM102.498 355.984L103.23 354.675L100.241 353.005L99.5091 354.314L98.7775 355.624L101.767 357.294L102.498 355.984ZM99.5091 354.314L99.5654 355.813L103.051 355.683L102.994 354.184L102.938 352.685L99.4528 352.816L99.5091 354.314ZM102.994 354.184L104.44 354.583L104.763 353.416L103.317 353.017L101.871 352.617L101.549 353.784L102.994 354.184ZM103.317 353.017L103.274 354.516L104.842 354.561L104.885 353.062L104.928 351.562L103.36 351.517L103.317 353.017ZM104.885 353.062L104.842 354.561C109.166 354.684 115.419 353.748 120.176 350.628L119.353 349.374L118.53 348.12C114.46 350.79 108.884 351.675 104.928 351.562L104.885 353.062ZM119.353 349.374L120.176 350.628C122.537 349.079 124.513 347.002 125.727 344.26L124.356 343.652L122.984 343.045C122.043 345.17 120.498 346.829 118.53 348.12L119.353 349.374ZM124.356 343.652L125.727 344.26C126.941 341.518 127.427 338.037 126.692 333.624L125.212 333.87L123.733 334.117C124.388 338.052 123.923 340.926 122.984 343.045L124.356 343.652ZM125.212 333.87L126.692 333.624C125.727 327.837 125.075 322.451 124.112 317.478L122.639 317.764L121.166 318.049C122.128 323.01 122.732 328.11 123.733 334.117L125.212 333.87ZM122.639 317.764L124.112 317.478C123.154 312.537 121.917 308.187 119.857 304.616L118.558 305.365L117.259 306.115C119.068 309.252 120.229 313.212 121.166 318.049L122.639 317.764ZM118.558 305.365L119.857 304.616C117.813 301.072 114.946 298.275 110.671 296.438L110.078 297.816L109.486 299.195C113.122 300.757 115.512 303.088 117.259 306.115L118.558 305.365ZM110.078 297.816L110.671 296.438C106.369 294.59 100.581 293.688 92.6672 294.065L92.7386 295.563L92.8099 297.062C100.458 296.698 105.748 297.588 109.486 299.195L110.078 297.816ZM92.7386 295.563L92.6672 294.065C84.9041 294.435 79.6794 297.192 76.1405 301.107L77.2532 302.113L78.366 303.119C81.3173 299.854 85.7633 297.398 92.81 297.062L92.7386 295.563ZM77.2532 302.113L76.1404 301.107C72.5762 305.051 70.642 310.257 69.6539 315.634L71.1292 315.905L72.6045 316.176C73.5372 311.1 75.3135 306.496 78.366 303.119L77.2532 302.113ZM71.1292 315.905L69.6539 315.634C68.667 321.006 68.638 326.471 68.82 330.857L70.3187 330.795L71.8174 330.733C71.6393 326.441 71.676 321.23 72.6045 316.176L71.1292 315.905ZM70.3187 330.795L68.82 330.857C68.9109 333.049 69.054 334.958 69.1551 336.459L70.6517 336.358L72.1483 336.258C72.0455 334.733 71.9063 332.875 71.8174 330.733L70.3187 330.795ZM70.6517 336.358L69.1551 336.459C69.2054 337.206 69.2457 337.86 69.2628 338.39L70.762 338.342L72.2612 338.294C72.2423 337.705 72.1985 337.003 72.1483 336.258L70.6517 336.358ZM70.762 338.342L69.2628 338.39C69.2629 338.394 69.2631 338.402 69.2632 338.43C69.2633 338.451 69.2633 338.496 69.2644 338.541L70.764 338.506L72.2636 338.47C72.2633 338.461 72.2633 338.451 72.2632 338.418C72.2631 338.391 72.2629 338.344 72.2612 338.294L70.762 338.342ZM70.764 338.506L69.7359 339.598L79.8365 349.105L80.8646 348.013L81.8926 346.92L71.792 337.414L70.764 338.506ZM80.8646 348.013L82.0645 348.913L94.1065 332.858L92.9066 331.958L91.7066 331.058L79.6646 347.113L80.8646 348.013ZM92.9066 331.958L94.1928 332.73L94.1957 332.725L92.9095 331.953L91.6232 331.181L91.6203 331.186L92.9066 331.958ZM92.9095 331.953L94.1067 332.857L94.2571 332.658L93.0599 331.754L91.8627 330.85L91.7123 331.049L92.9095 331.953ZM93.0599 331.754L94.2567 332.658L94.8573 331.863L93.6605 330.959L92.4636 330.055L91.8631 330.85L93.0599 331.754ZM93.6605 330.959V332.459H94.9066V330.959V329.459H93.6605V330.959ZM94.9066 330.959L94.9063 332.459C95.4273 332.459 95.9141 332.615 96.3166 332.939L97.2571 331.771L98.1977 330.602C97.2108 329.808 96.0426 329.459 94.9068 329.459L94.9066 330.959ZM97.2571 331.771L96.2945 332.921L96.4322 333.036L97.3948 331.886L98.3575 330.735L98.2198 330.62L97.2571 331.771ZM97.3948 331.886H95.8948V331.887H97.3948H98.8948V331.886H97.3948ZM97.3948 331.887L96.3984 333.008C96.7977 333.363 97.0416 333.835 97.1945 334.318L98.6243 333.864L100.054 333.411C99.8029 332.618 99.3295 331.599 98.3913 330.765L97.3948 331.887ZM98.6243 333.864H97.1243V333.865H98.6243H100.124V333.864H98.6243ZM98.6243 333.865L97.1943 334.318C97.4932 335.262 97.5314 336.527 97.4408 337.952L98.9378 338.047L100.435 338.142C100.53 336.646 100.53 334.913 100.054 333.412L98.6243 333.865ZM98.9378 338.047L97.4408 337.952C97.2573 340.838 96.5034 344.91 95.6028 349.65L97.0765 349.93L98.5501 350.21C99.4377 345.538 100.237 341.257 100.435 338.142L98.9378 338.047ZM97.0765 349.93L95.6028 349.65C93.8508 358.871 91.5011 370.827 91.3422 382.515L92.8421 382.535L94.342 382.556C94.4966 371.178 96.7873 359.488 98.5501 350.21L97.0765 349.93ZM92.8421 382.535L91.9329 383.728C92.0964 383.853 92.2938 384.004 92.5072 384.166L93.4114 382.969L94.3157 381.772C94.1085 381.615 93.9261 381.475 93.7513 381.342L92.8421 382.535ZM93.4114 382.969L92.5072 384.166C93.5117 384.924 94.9668 386.007 96.7627 387.293L97.636 386.073L98.5094 384.854C96.7373 383.585 95.3029 382.518 94.3157 381.772L93.4114 382.969ZM97.636 386.073L96.7627 387.293C100.357 389.867 105.312 393.256 110.759 396.525L111.531 395.238L112.302 393.952C106.945 390.738 102.06 387.397 98.5094 384.854L97.636 386.073ZM111.531 395.238L110.759 396.525C116.211 399.796 122.131 402.931 127.66 405.009L128.188 403.604L128.715 402.2C123.426 400.213 117.68 397.179 112.302 393.952L111.531 395.238ZM128.188 403.604L127.66 405.009C133.229 407.101 138.23 408.055 141.927 407.175L141.579 405.716L141.232 404.257C138.451 404.919 134.168 404.249 128.715 402.2L128.188 403.604ZM141.579 405.716L141.927 407.175C142.824 406.961 143.822 406.426 144.891 405.651C145.981 404.86 147.236 403.754 148.651 402.291L147.573 401.248L146.494 400.205C145.162 401.582 144.04 402.562 143.13 403.222C142.199 403.897 141.574 404.175 141.232 404.257L141.579 405.716ZM147.573 401.248L148.651 402.291C151.37 399.48 154.432 395.621 157.73 391.001L156.509 390.13L155.288 389.258C152.028 393.826 149.064 397.548 146.494 400.205L147.573 401.248ZM156.509 390.13L157.73 391.001C164.323 381.764 171.784 369.579 179.211 356.866L177.916 356.109L176.621 355.353C169.202 368.051 161.798 380.138 155.288 389.258L156.509 390.13ZM177.916 356.109L179.211 356.866C186.639 344.154 194.013 330.95 200.45 319.662L199.147 318.919L197.844 318.176C191.388 329.497 184.039 342.657 176.621 355.353L177.916 356.109ZM199.147 318.919L200.45 319.662C206.871 308.402 212.379 299.01 216.04 294L214.828 293.115L213.617 292.23C209.835 297.406 204.236 306.965 197.844 318.176L199.147 318.919ZM214.828 293.115L216.04 294L216.085 293.938L214.873 293.054L213.662 292.169L213.617 292.231L214.828 293.115ZM214.873 293.054L216.087 293.935L216.276 293.675L215.063 292.793L213.849 291.911L213.66 292.172L214.873 293.054ZM215.063 292.793L215.937 294.012L216.2 293.823L215.326 292.604L214.451 291.386L214.188 291.574L215.063 292.793ZM215.326 292.604L216.199 293.824L216.265 293.777L215.391 292.558L214.517 291.338L214.452 291.385L215.326 292.604ZM215.391 292.558L216.266 293.776C221.854 289.765 231.09 285.316 240.656 285.074L240.618 283.574L240.581 282.075C230.224 282.336 220.414 287.106 214.516 291.339L215.391 292.558ZM240.618 283.574L240.656 285.074C245.457 284.953 250.363 285.893 254.918 288.5L255.663 287.198L256.409 285.896C251.297 282.97 245.829 281.942 240.581 282.075L240.618 283.574ZM255.663 287.198L254.918 288.5C255.413 288.783 255.905 289.09 256.395 289.416L257.227 288.168L258.058 286.92C257.518 286.56 256.969 286.217 256.409 285.896L255.663 287.198ZM257.227 288.168L258.552 287.466C254.38 279.588 248.417 270.92 239.74 263.434L238.76 264.569L237.78 265.705C246.104 272.887 251.854 281.227 255.901 288.87L257.227 288.168ZM238.76 264.569L239.74 263.434C224.848 250.584 201.853 241.12 165.9 245.282L166.073 246.772L166.245 248.263C201.456 244.186 223.589 253.461 237.78 265.705L238.76 264.569ZM166.073 246.772L165.9 245.282C128.143 249.654 102.808 239.035 87.7112 226.761L86.765 227.925L85.8187 229.089C101.574 241.899 127.725 252.723 166.245 248.263L166.073 246.772ZM203.519 171.234L204.615 170.211C180.884 144.784 159.153 137.653 140.444 140.589L140.677 142.071L140.91 143.553C158.335 140.818 179.132 147.304 202.422 172.258L203.519 171.234ZM140.677 142.071L140.444 140.589C122.208 143.453 106.564 155.922 94.5139 171.038L95.6868 171.973L96.8597 172.908C108.684 158.076 123.725 146.251 140.91 143.553L140.677 142.071ZM95.6868 171.973L94.429 172.79C97.8854 178.11 102.688 184.544 112.228 189.734L112.945 188.416L113.661 187.098C104.74 182.245 100.269 176.271 96.9447 171.155L95.6868 171.973ZM112.945 188.416L112.228 189.734C122.719 195.441 139.042 199.694 165.761 199.087L165.727 197.587L165.693 196.087C139.294 196.687 123.542 192.473 113.661 187.098L112.945 188.416ZM165.727 197.587L165.761 199.087C193.051 198.466 215.622 215.652 232.681 237.113L233.855 236.18L235.029 235.246C217.741 213.496 194.373 195.436 165.693 196.087L165.727 197.587ZM233.855 236.18L232.681 237.113C239.19 245.302 244.915 254.142 249.819 262.902L251.128 262.169L252.437 261.436C247.469 252.562 241.656 243.584 235.029 235.246L233.855 236.18ZM251.128 262.169L249.874 262.992C252.712 267.315 255.387 272.036 257.856 277.185L259.208 276.537L260.561 275.889C258.036 270.621 255.295 265.783 252.382 261.346L251.128 262.169ZM259.208 276.537L260.665 276.179C253.015 245.031 235.984 209.782 204.694 170.303L203.519 171.234L202.343 172.166C233.424 211.382 250.224 246.248 257.752 276.895L259.208 276.537ZM82.846 191.29L81.5333 190.564C78.5537 195.953 76.0392 201.289 74.0301 206.296L75.4222 206.854L76.8143 207.413C78.7766 202.522 81.2379 197.298 84.1587 192.016L82.846 191.29ZM75.4222 206.854L74.0781 207.52C75.9836 211.367 79.2265 216.024 83.9578 220.715L85.014 219.65L86.0702 218.585C81.5467 214.1 78.5093 209.707 76.7663 206.189L75.4222 206.854ZM85.014 219.65L83.9578 220.716C97.6703 234.313 123.813 248.143 165.669 243.297L165.496 241.807L165.324 240.317C124.341 245.062 99.1122 231.518 86.0702 218.585L85.014 219.65ZM165.496 241.807L165.669 243.297C202.117 239.076 225.686 248.665 241.047 261.918L242.027 260.782L243.007 259.647C226.944 245.788 202.514 236.01 165.324 240.317L165.496 241.807ZM242.027 260.782L241.047 261.918C242.989 263.594 244.798 265.329 246.485 267.098L247.571 266.063L248.656 265.029C246.906 263.192 245.027 261.39 243.007 259.647L242.027 260.782ZM247.571 266.063L248.885 265.341C248.646 264.906 248.404 264.469 248.16 264.033L246.851 264.765L245.541 265.496C245.782 265.926 246.02 266.356 246.256 266.786L247.571 266.063ZM246.851 264.765L248.103 263.939C238.958 250.058 228.131 240.42 217.137 233.909L216.372 235.199L215.608 236.49C226.218 242.774 236.708 252.096 245.598 265.59L246.851 264.765ZM216.372 235.199L217.137 233.909C197.945 222.542 178.204 220.668 165.941 222.412L166.153 223.897L166.364 225.383C177.995 223.728 197.041 225.493 215.608 236.49L216.372 235.199ZM166.153 223.897L165.741 222.455L165.734 222.457L166.146 223.899L166.558 225.342L166.565 225.34L166.153 223.897ZM166.146 223.899L165.912 222.418L165.838 222.429L166.072 223.911L166.306 225.393L166.38 225.381L166.146 223.899ZM166.072 223.911L165.957 222.416L165.88 222.421L165.995 223.917L166.11 225.413L166.187 225.407L166.072 223.911ZM165.995 223.917L165.862 222.423C125.629 226.011 95.9783 208.102 84.0901 190.452L82.846 191.29L81.6019 192.128C94.161 210.774 124.919 229.086 166.129 225.411L165.995 223.917ZM92.4739 176.175L91.2635 175.289C88.7886 178.67 86.4941 182.142 84.3875 185.627L85.6712 186.403L86.9549 187.179C89.0192 183.764 91.2652 180.366 93.6844 177.061L92.4739 176.175ZM85.6712 186.403L84.3784 187.164C94.7061 204.715 124.318 224.104 165.645 220.433L165.512 218.938L165.379 217.444C125.054 221.027 96.63 202.07 86.964 185.643L85.6712 186.403ZM165.512 218.938L165.721 220.424C178.409 218.635 198.579 220.594 218.156 232.188L218.92 230.897L219.685 229.607C199.484 217.643 178.62 215.575 165.303 217.453L165.512 218.938ZM218.92 230.897L218.156 232.188C221.258 234.025 224.344 236.104 227.381 238.447L228.297 237.259L229.213 236.071C226.077 233.652 222.89 231.505 219.685 229.607L218.92 230.897ZM228.297 237.259L229.456 236.306C212.782 216.037 191.32 200.506 165.808 201.085L165.842 202.585L165.876 204.085C190.042 203.536 210.713 218.243 227.139 238.212L228.297 237.259ZM165.842 202.585L165.808 201.085C138.875 201.697 122.171 197.419 111.272 191.49L110.555 192.808L109.838 194.125C121.348 200.386 138.623 204.704 165.876 204.085L165.842 202.585ZM110.555 192.808L111.272 191.49C102.167 186.537 97.1876 180.467 93.7164 175.334L92.4739 176.175L91.2314 177.015C94.8682 182.392 100.175 188.869 109.838 194.125L110.555 192.808ZM73.722 213.846L72.2227 213.801C72.1059 217.676 71.913 220.796 73.4704 224.548L74.8558 223.973L76.2412 223.398C74.9722 220.341 75.101 217.884 75.2213 213.891L73.722 213.846ZM74.8558 223.973V222.473H74.8548V223.973V225.473H74.8558V223.973ZM74.8548 223.973L73.4694 224.548C74.745 227.62 77.2221 231.069 82.0028 235.448L83.0159 234.342L84.0291 233.236C79.428 229.021 77.2869 225.919 76.2402 223.398L74.8548 223.973ZM83.0159 234.342L84.4725 233.983C83.4936 230.005 82.7774 225.618 82.3673 222.388L80.8792 222.577L79.3912 222.766C79.8109 226.071 80.5451 230.578 81.5594 234.7L83.0159 234.342ZM80.8792 222.577L81.949 221.526C79.0991 218.626 76.7806 215.734 74.9707 213.015L73.722 213.846L72.4733 214.677C74.3926 217.56 76.8322 220.6 79.8094 223.629L80.8792 222.577Z" fill="#C08E88"/>
</svg>
